/* XPM */
static char *result[] = {
/* columns rows colors chars-per-pixel */
"64 64 192 2 ",
"   c #BDDBEF",
".  c #BDDBF0",
"X  c #BEDBF0",
"o  c #BDDCF0",
"O  c #BEDCF0",
"+  c #BFDCF0",
"@  c #BEDDF0",
"#  c #BFDDF0",
"$  c #BFDDF1",
"%  c #BFDEF1",
"&  c #C0DDF1",
"*  c #C1DDF1",
"=  c #C0DEF1",
"-  c #C1DEF1",
";  c #C0DFF1",
":  c #C1DFF1",
">  c #C2DEF1",
",  c #C3DFF1",
"<  c #C2DFF2",
"1  c #C3DFF2",
"2  c #C1E0F2",
"3  c #C2E0F2",
"4  c #C2E1F2",
"5  c #C3E1F2",
"6  c #C2E1F3",
"7  c #C3E2F2",
"8  c #C2E2F3",
"9  c #C3E2F3",
"0  c #C3E3F3",
"q  c #C4E0F2",
"w  c #C5E0F2",
"e  c #C5E1F3",
"r  c #C4E2F3",
"t  c #C4E3F3",
"y  c #C7E2F3",
"u  c #C5E4F3",
"i  c #C5E4F4",
"p  c #C4E5F4",
"a  c #C5E5F4",
"s  c #C6E5F4",
"d  c #C5E6F5",
"f  c #C5E7F5",
"g  c #C7E6F4",
"h  c #C7E7F5",
"j  c #C9E2F3",
"k  c #C8E7F5",
"l  c #CCE5F5",
"z  c #CEE5F5",
"x  c #CDE7F6",
"c  c #CFE7F6",
"v  c #C7E8F6",
"b  c #C6E9F6",
"n  c #C7E9F6",
"m  c #C8E8F5",
"M  c #C9E8F5",
"N  c #C9E9F5",
"B  c #C8E9F6",
"V  c #C9E9F6",
"C  c #CAE9F6",
"Z  c #C8EAF6",
"A  c #C9EAF6",
"S  c #CAEAF6",
"D  c #CBEAF6",
"F  c #CBEBF6",
"G  c #CEEAF7",
"H  c #CCECF7",
"J  c #CCEDF7",
"K  c #CDEDF7",
"L  c #C9ECF8",
"P  c #C9EDF8",
"I  c #CAEDF8",
"U  c #CBEDF8",
"Y  c #CAEEF8",
"T  c #CBEEF8",
"R  c #CCEDF8",
"E  c #CDEDF8",
"W  c #CDEEF8",
"Q  c #CEEEF8",
"!  c #CEEFF8",
"~  c #CFEFF8",
"^  c #D1E6F4",
"/  c #D1E7F6",
"(  c #D7E9F6",
")  c #D4EAF7",
"_  c #DAEBF6",
"`  c #D4EAF8",
"'  c #D5EBF8",
"]  c #D6EBF8",
"[  c #D0ECF8",
"{  c #D0EFF8",
"}  c #CCF0F9",
"|  c #CFF0F9",
" . c #CCF1FA",
".. c #CDF1FA",
"X. c #CFF1FA",
"o. c #CDF3FA",
"O. c #CDF3FB",
"+. c #CFF2FA",
"@. c #CEF3FA",
"#. c #CEF3FB",
"$. c #CFF3FB",
"%. c #CEF4FB",
"&. c #CEF5FB",
"*. c #CFF5FC",
"=. c #CFF6FC",
"-. c #D0F0F9",
";. c #D0F1F9",
":. c #D1F1F9",
">. c #D1F2F9",
",. c #D1F2FA",
"<. c #D1F3FA",
"1. c #D2F3FA",
"2. c #D0F4FB",
"3. c #D1F4FB",
"4. c #D1F5FB",
"5. c #D2F4FA",
"6. c #D3F4FA",
"7. c #D2F4FB",
"8. c #D3F4FB",
"9. c #D3F5FB",
"0. c #D5F4FB",
"q. c #D4F5FB",
"w. c #D4F6FB",
"e. c #D5F6FB",
"r. c #D5F7FB",
"t. c #D2F1FE",
"y. c #D3F1FE",
"u. c #D2F0FF",
"i. c #D3F0FF",
"p. c #D2F1FF",
"a. c #D3F1FF",
"s. c #D3F2FE",
"d. c #D3F3FE",
"f. c #D4F3FE",
"g. c #D0F5FC",
"h. c #D0F6FC",
"j. c #D1F6FC",
"k. c #D0F7FC",
"l. c #D1F7FC",
"z. c #D2F6FC",
"x. c #D2F7FC",
"c. c #D3F7FC",
"v. c #D3F7FD",
"b. c #D4F4FD",
"n. c #D4F5FD",
"m. c #D5F5FD",
"M. c #D6F5FD",
"N. c #D4F6FC",
"B. c #D4F7FC",
"V. c #D5F7FC",
"C. c #D5F6FD",
"Z. c #D5F7FD",
"A. c #D6F7FC",
"S. c #D7F6FD",
"D. c #D4F4FE",
"F. c #DFF1FB",
"G. c #DEF1FC",
"H. c #DDF2FC",
"J. c #DBF5FC",
"K. c #DDF5FC",
"L. c #DEF7FD",
"P. c #D4F8FC",
"I. c #D5F8FC",
"U. c #D6F8FC",
"Y. c #D7F8FC",
"T. c #D9F8FC",
"R. c #D9F8FD",
"E. c #DAF8FD",
"W. c #DFF8FD",
"Q. c #DFF8FE",
"!. c #E3F0F8",
"~. c #E7F3FB",
"^. c #E1F2FC",
"/. c #E3F4FD",
"(. c #E3F5FE",
"). c #E1F7FE",
"_. c #E5F6FE",
"`. c #E4F7FE",
"'. c #E5F7FF",
"]. c #E6F7FF",
"[. c #E7F7FF",
"{. c #EAF4FA",
"}. c #E8F5FD",
"|. c #EBF6FC",
" X c #E8F7FF",
".X c #E9F7FF",
"XX c #E1F8FE",
"oX c #E9F8FF",
"OX c #F0F7FC",
"+X c #F1FAFF",
"@X c #F5FBFF",
"#X c #F6FCFF",
/* pixels */
"U.U.U.U.U.U.U.U.U.w.5 9 e.U.U.U.U.U.U.U.U.U.U.U.U.U.U.U.U.U.U.U.U.U.U.U.U.U.U.U.U.U.U.U.U.U.U.U.U.U.U.U.U.U.C.u.f.U.n.u.D.U.U.U.",
"U.U.U.U.U.U.U.U.U.5.= : 8.U.U.U.U.U.U.U.U.U.U.U.U.U.U.U.U.U.U.U.U.U.U.U.U.U.U.U.U.U.U.U.U.U.U.U.U.U.U.U.U.U.C.u.u.s.p.u.D.U.U.U.",
"U.U.U.U.U.U.U.U.B.#.; ; $.B.U.U.U.U.U.U.U.U.U.U.U.U.U.U.U.U.U.U.U.U.U.U.U.U.U.U.U.U.U.U.U.U.U.U.U.U.U.U.U.U.U.n.u.u.u.d.U.U.U.U.",
"U.U.U.V.W | B.l.=.o.; ; O.=.x.V.-.! V.U.U.U.U.U.U.U.U.U.U.U.U.U.U.U.U.U.U.U.U.U.U.U.U.U.U.U.U.U.U.U.U.U.U.U.U.n.u.u.u.D.U.U.U.U.",
"U.U.U.<.$ # d  .x.<.% : 7.x. .d # = 6.U.U.U.U.U.U.U.U.U.U.U.U.U.U.U.U.U.U.U.U.U.U.U.U.U.U.U.U.U.U.U.U.U.U.U.C.p.u.s.u.u.b.U.U.U.",
"U.U.U.e.V = X ; S -.% : :.C ; . - C r.U.U.U.U.U.U.U.U.U.b.s.V.U.U.U.U.U.U.U.U.U.U.U.U.U.U.U.U.U.U.U.U.U.U.U.C.p.f.A.n.p.D.U.U.U.",
"U.U.U.U.V.} p O O : O # : O # l G.T.U.U.U.U.U.U.U.U.U.A.s.u.m.U.U.U.U.U.U.U.U.U.U.U.U.U.U.U.U.U.U.U.U.U.U.U.U.V.U.U.U.V.U.U.U.U.",
"U.U.U.U.I.=.g.Q 5 O O O O 7 { _. XR.U.U.U.U.U.U.U.U.b.t.u.u.p.s.V.U.U.U.U.U.U.U.U.U.U.U.U.U.U.U.U.U.U.U.U.U.U.U.U.U.U.U.U.U.U.U.",
"U.U.U.U.I.=.l.1.a O O O O s 0.].[.R.U.U.U.U.U.U.U.U.d.i.u.u.i.a.C.U.U.U.U.U.U.U.U.U.U.U.U.U.U.U.U.U.U.U.U.U.U.U.U.U.U.U.U.U.U.U.",
"U.U.U.U.I.%.Z : X # O O # X < ' (.E.U.U.U.U.U.U.U.U.A.S.a.u.M.A.U.U.U.U.U.U.U.U.U.U.U.U.U.U.U.U.U.U.U.U.U.U.U.U.U.U.U.U.U.U.U.U.",
"U.U.U.A.Q 8 O O i H $ : K u O O y { U.U.U.U.U.U.U.U.U.U.f.p.Z.U.U.U.U.U.U.U.U.U.U.U.U.U.U.U.U.U.U.U.U.U.U.U.U.U.U.U.U.U.U.U.U.U.",
"U.U.U.1.% X 6 I z.5.% : 9.z.P 4 . = 6.U.U.U.U.U.U.U.U.U.A.V.U.U.U.U.U.U.U.U.U.U.U.U.U.U.U.U.r.U.U.U.U.U.U.U.U.U.U.U.U.U.U.U.U.U.",
"U.U.U.w.m D 7.h.=.@.= ; #.=.k.3.S M e.U.U.U.U.U.U.U.U.U.U.U.U.U.U.U.U.U.U.U.U.U.U.U.U.U.U.! 7 | U.U.U.U.U.U.U.U.U.U.U.U.U.U.U.U.",
"U.U.U.U.U.U.U.I.c.O.; ; O.c.I.U.U.U.U.U.U.U.U.U.U.U.U.U.U.U.U.U.U.U.U.U.U.U.U.U.U.U.U.U.U.m   S U.U.U.U.U.U.U.U.U.U.U.U.U.U.U.U.",
"U.U.U.U.U.U.U.U.U.1.= ; 7.U.U.U.U.U.U.U.U.U.U.U.U.U.U.U.U.U.U.U.U.U.U.U.U.U.U.U.U.U.U.I.c.n . n c.U.U.U.U.U.U.U.U.U.U.U.U.U.U.U.",
"U.U.U.U.U.U.U.U.U.q.4 5 w.U.U.U.U.U.U.U.U.U.U.U.U.U.U.U.U.U.U.U.U.U.U.U.U.U.U.6.! q.B.h.=.b X n =.h.B.q.! 6.U.U.U.U.U.U.U.U.U.U.",
"U.U.U.U.U.U.U.U.U.U.1.1.U.U.U.U.U.U.U.U.U.U.U.U.U.U.U.U.U.U.U.U.U.U.U.U.U.U.U.h O 9 Y *.c.m . A c.*.I 9 O M U.U.U.U.U.U.U.U.U.U.",
"U.U.U.U.U.U.U.U.U.U.U.U.U.U.U.U.U.U.U.U.U.U.U.U.U.U.U.U.U.U.U.U.U.U.U.U.U.U.U.~ 4 O # a >.k . S >.i @ O 5 -.U.U.U.U.U.U.U.U.U.U.",
"U.U.U.U.U.U.U.U.U.U.U.U.U.U.U.U.U.U.U.U.U.U.U.U.U.U.U.U.U.U.U.U.U.U.U.U.U.U.U.U.2.n = . = : O 2 = . 1 ` K.U.U.U.U.U.U.U.U.U.U.U.",
"U.U.U.U.U.U.U.U.U.U.U.U.U.U.U.U.U.U.U.U.U.U.U.U.U.U.U.U.U.U.U.U.U.U.U.U.U.U.U.U.x.=.X.g # O O O * ( |..XXXU.U.U.U.U.U.U.U.U.U.U.",
"U.U.U.U.U.U.U.U.U.U.U.U.U.U.U.U.U.U.U.U.U.U.U.U.U.U.U.U.U.U.U.U.U.U.U.U.U.U.U.U.x.=.N.Q = O O O w {.@X.X).U.U.U.U.U.U.U.U.U.U.U.",
"U.U.U.U.U.U.U.U.U.U.U.U.U.U.U.U.U.U.c.c.U.U.U.U.U.U.U.U.U.U.U.U.U.U.U.U.U.U.U.U.x. .a # O O O # O * / ^.).U.U.U.U.U.U.U.U.U.U.U.",
"A.V.V.A.U.U.U.U.U.U.U.U.U.U.U.U.U.x.=.=.z.U.U.U.U.U.U.U.U.U.U.U.U.U.U.U.U.U.U.q.B ; X = C a . h N = . 1 G w.U.U.U.U.U.U.U.U.U.U.",
"d.p.p.f.U.U.U.U.U.U.U.U.U.U.U.U.U.j.=.=.h.U.U.U.U.U.U.U.U.U.U.U.U.U.U.U.U.U.U.m . # d ..I.m . S I...p @ . V U.U.U.U.U.U.U.U.U.U.",
"s.u.u.f.U.U.U.U.U.U.U.U.U.U.U.U.U.c.=.=.c.U.U.U.U.U.U.U.U.U.U.U.U.U.U.U.U.U.U.W s ! j.=.h.v . B h.=.j.Q s ! U.U.U.U.U.U.U.U.U.U.",
"s.u.u.d.U.U.U.U.U.U.U.U.U.U.U.U.U.U.V.B.U.U.U.U.U.U.U.U.U.U.U.U.U.U.U.U.U.U.U.U.U.U.U.c.k.b X n l.B.U.U.U.U.U.U.U.U.U.U.U.U.U.U.",
"C.n.m.C.U.U.U.U.U.U.U.U.U.U.U.U.U.U.U.U.U.U.U.U.U.U.U.U.U.U.U.U.U.U.U.U.U.U.U.U.U.U.U.U.U.m . V U.U.U.U.U.U.U.U.U.U.U.U.U.U.U.U.",
"U.U.U.U.U.U.U.U.U.U.U.U.U.U.U.U.U.U.U.U.U.U.U.U.U.U.U.U.U.U.U.U.U.U.U.U.U.U.U.U.U.U.U.U.U.F O H U.U.U.U.U.U.U.U.U.U.U.U.U.U.U.U.",
"U.U.U.U.U.U.U.U.U.U.U.U.U.U.U.U.U.U.U.U.U.U.U.U.U.U.U.U.U.U.U.A.A.A.U.U.U.U.U.U.U.U.U.U.U.w.| w.U.U.U.U.U.U.U.U.U.U.U.U.U.U.U.U.",
"U.U.U.U.U.U.U.U.U.U.U.U.U.U.U.U.U.U.U.U.U.U.U.U.U.U.U.U.U.U.Z.s.a.y.Z.U.U.U.U.U.U.U.U.U.U.U.U.U.U.U.U.U.U.U.U.U.U.U.U.U.U.U.U.U.",
"U.U.U.U.U.U.U.U.U.U.U.U.U.U.U.U.U.U.U.U.U.U.U.U.U.U.U.U.U.U.C.u.u.u.C.U.U.U.U.U.U.U.U.U.U.U.U.U.U.U.U.U.U.U.U.U.U.U.U.U.U.U.U.U.",
"U.U.U.U.U.U.U.U.U.U.U.U.U.U.U.U.U.U.U.U.U.U.U.U.U.U.U.U.U.U.C.u.u.u.C.U.U.U.U.U.U.U.U.U.U.U.U.U.U.U.U.U.U.U.U.U.U.U.U.U.U.U.U.U.",
"U.U.U.U.U.U.m.C.U.U.m.C.U.U.U.U.U.U.U.U.U.U.U.U.U.U.U.U.U.U.U.n.n.n.A.U.U.U.U.U.U.U.U.U.U.U.U.U.U.U.U.U.U.U.U.U.U.U.U.U.U.U.U.U.",
"U.U.U.U.U.V.p.u.n.b.u.s.U.U.U.U.U.U.U.U.U.U.U.U.U.U.U.U.U.U.U.U.U.U.U.U.U.U.U.U.U.U.U.U.U.U.U.U.U.U.U.U.U.U.U.U.U.U.U.U.U.U.U.U.",
"U.U.U.U.U.U.d.u.u.u.u.n.U.U.U.U.U.U.U.U.U.U.U.U.U.U.U.U.U.U.U.U.U.U.U.U.U.U.U.U.U.U.U.U.U.U.U.U.U.U.U.U.U.U.U.U.U.U.U.U.I.B.V.U.",
"U.U.U.U.U.U.A.y.u.u.d.U.U.U.U.U.U.U.U.U.U.U.U.U.U.U.U.U.U.U.U.U.U.U.U.U.U.U.U.U.U.U.U.U.U.U.U.U.U.U.U.U.U.U.U.U.U.U.U.U.j.=.h.B.",
"U.U.U.U.U.U.b.u.u.u.p.n.U.U.U.U.U.U.U.U.U.U.U.U.U.U.U.U.U.U.U.U.U.U.U.U.U.U.U.U.U.U.U.U.U.U.U.U.U.U.U.U.U.U.U.U.U.U.U.V.=.=.=.z.",
"U.U.U.U.U.V.p.u.b.d.u.s.U.U.U.U.U.U.U.U.U.U.U.U.U.U.U.U.U.U.U.U.U.U.U.U.U.U.U.U.U.U.U.U.U.U.U.U.U.U.U.U.U.U.U.U.U.U.U.U.h.=.=.B.",
"U.U.U.U.U.U.b.m.U.U.b.m.U.U.U.U.U.U.U.U.U.U.U.U.U.U.U.U.U.U.U.U.U.U.U.U.U.U.U.U.U.U.U.U.U.U.U.U.U.U.U.U.U.U.U.U.U.U.U.U.I.B.V.U.",
"U.U.U.U.U.U.U.U.U.U.U.U.U.U.U.U.U.U.U.U.U.U.U.U.U.U.U.U.U.U.U.U.U.U.U.U.U.U.U.U.U.U.U.U.U.U.U.U.U.U.U.U.U.U.U.U.U.U.U.U.U.U.U.U.",
"U.U.U.U.U.U.U.U.U.U.U.U.U.U.U.U.U.U.U.U.U.U.U.U.U.U.U.6.~ r.U.U.U.U.U.U.U.U.U.U.U.U.U.U.U.U.U.U.U.U.U.U.U.U.U.U.U.U.U.U.U.U.U.U.",
"U.U.U.U.U.U.U.U.U.U.U.U.U.U.U.U.U.U.U.U.U.U.U.U.U.U.U.g O ~ U.U.U.U.U.U.U.U.U.U.U.U.U.U.U.U.U.U.U.U.U.U.U.U.U.U.U.U.U.U.U.U.U.U.",
"U.U.U.U.U.U.U.U.U.U.U.U.U.U.U.U.U.U.U.U.U.U.U.U.U.U.V.i O R U.U.U.U.U.U.U.U.U.U.U.U.U.U.U.U.A.C.A.U.U.U.U.U.U.U.U.U.U.U.U.U.U.U.",
"U.U.U.U.U.U.U.U.U.U.U.U.U.U.U.U.U.U.U.U.U.U.U.U.U.c.h.a O I l.B.U.U.V.U.U.U.U.U.U.U.U.U.U.U.b.u.n.U.U.U.U.U.U.U.U.U.U.U.U.U.U.U.",
"U.U.U.U.U.U.U.U.U.U.U.U.U.U.U.U.U.U.U.U.U.F s | h.=.h.i O U k.=.4.H u :.U.U.U.U.U.U.U.U.A.C.s.u.d.C.A.U.U.U.U.U.U.U.U.U.U.U.U.U.",
"U.U.U.U.U.U.U.U.U.U.U.U.U.U.U.U.U.U.U.U.V.u . $ f +.V.i X W B.T 0 O O K U.U.U.U.U.U.U.U.b.u.u.u.u.u.n.U.U.U.U.U.U.U.U.U.U.U.U.U.",
"U.U.U.U.U.U.U.U.U.U.U.U.U.U.U.U.U.U.U.U.U.6.x - . : S 9 O m g # o e [ r.U.U.U.U.U.U.U.U.C.d.p.u.t.d.C.U.U.U.U.U.U.U.U.U.U.U.U.U.",
"U.U.U.U.U.U.U.U.U.U.U.U.U.U.U.U.U.U.U.U.U.Y.`.F.z # O O O O o , ) /.Q.U.U.U.U.U.U.U.U.U.U.U.D.u.b.U.U.U.U.U.U.U.U.U.U.U.U.U.U.U.",
"U.U.U.U.U.U.U.U.U.U.U.U.U.U.U.U.U.U.U.U.U.Y.`.oX#X!.- O O o j OX+X XL.U.U.U.U.U.U.U.U.U.U.U.C.d.C.U.U.U.U.U.U.U.U.U.U.U.U.U.U.U.",
"U.U.U.U.U.U.U.U.U.U.U.U.U.U.U.U.U.U.U.U.U.Y.'. X~.^ + O O O > _ }. XW.U.U.U.U.U.U.U.U.U.U.U.U.U.U.U.U.U.U.U.U.U.U.U.U.U.U.U.U.U.",
"U.U.U.U.U.U.U.U.U.U.U.U.U.U.U.U.U.U.U.U.U.Y.H.c & . : ; O 3 % . q ] J.U.U.U.U.U.U.U.U.U.U.U.U.U.U.U.U.U.U.U.U.U.U.U.U.U.U.U.U.U.",
"U.c.h.h.B.U.U.U.U.U.U.U.U.U.U.U.U.U.U.U.U.H : . % m 1.i O J ;.t O O r ,.U.U.U.U.U.U.U.U.U.U.U.U.U.U.U.U.U.U.U.U.U.U.U.U.U.U.U.U.",
"U.h.=.=.x.U.U.U.U.U.U.U.U.U.U.U.U.U.U.U.V.u O i } h.c.i O R v.&.L 4 O H U.U.U.U.U.U.U.U.U.U.U.U.U.U.U.U.U.U.U.U.U.U.U.U.U.U.U.U.",
"U.j.=.=.c.U.U.U.U.U.U.U.U.U.U.U.U.U.U.U.U.1.| V.c.h.=.i O I =.j.P.9.~ w.U.U.U.U.U.U.U.U.U.U.U.U.U.U.U.U.U.U.U.U.U.U.U.U.U.U.U.U.",
"U.V.z.x.I.U.U.U.U.U.U.U.U.U.U.U.U.U.U.U.U.U.U.U.U.I.z.i O U B.U.U.U.U.U.U.U.U.U.U.U.U.U.U.U.U.U.U.U.U.U.U.U.U.U.U.U.U.U.U.U.U.U.",
"U.U.U.U.U.U.U.U.U.U.U.U.U.U.U.U.U.U.U.U.U.U.U.U.U.U.U.i . E Y.U.U.U.U.U.U.U.U.U.U.U.U.U.U.U.U.U.U.U.U.U.U.U.U.U.U.U.U.U.U.U.U.U.",
"U.U.U.U.U.U.U.U.U.U.U.U.U.U.U.U.U.U.U.U.U.U.U.U.U.U.U.H t 1.U.U.U.U.U.U.U.U.U.U.U.U.U.U.U.U.U.U.U.U.U.U.U.U.U.U.U.U.U.U.U.U.U.U.",
"U.U.U.U.U.U.U.U.U.U.U.U.U.U.U.U.U.U.U.U.U.U.U.U.U.U.U.U.V.U.U.U.U.U.U.U.U.U.U.U.U.U.U.U.U.U.U.U.U.U.U.U.U.U.U.U.U.U.U.U.U.U.U.U.",
"U.U.U.U.U.U.U.U.U.U.U.U.U.U.V.D.b.n.U.U.U.U.U.U.U.U.U.U.U.U.U.U.U.U.U.U.U.U.U.U.U.U.U.U.U.U.U.U.U.U.U.U.U.U.U.U.U.U.U.U.U.U.U.U.",
"U.U.U.U.U.U.U.U.U.U.U.U.U.U.b.u.u.p.A.U.U.U.U.U.U.U.U.U.U.U.U.U.U.U.U.U.U.U.U.U.U.U.U.U.U.U.U.U.U.U.U.U.U.U.U.U.U.U.U.U.U.U.U.U.",
"U.U.U.U.U.U.U.U.U.U.U.U.U.U.n.u.u.p.A.U.U.U.U.U.U.U.U.U.U.U.U.U.U.U.U.U.U.U.U.U.U.U.U.U.U.U.U.U.U.x.h.x.U.U.U.U.U.U.U.U.U.U.U.U.",
"U.U.U.U.U.U.U.U.U.U.U.U.U.U.m.y.y.d.U.U.U.U.U.U.U.U.U.U.U.U.U.U.U.U.U.U.U.U.U.U.U.U.U.U.U.U.U.U.V.=.=.=.B.U.U.U.U.U.U.U.U.U.U.U.",
"U.U.U.U.U.U.U.U.U.U.U.U.U.U.U.A.U.U.U.U.U.U.U.U.U.U.U.U.U.U.U.U.U.U.U.U.U.U.U.U.U.U.U.U.U.U.U.U.B.=.=.=.B.U.U.U.U.U.U.U.U.U.U.U.",
"U.U.U.U.U.U.U.U.U.U.U.U.U.U.U.U.U.U.U.U.U.U.U.U.U.U.U.U.U.U.U.U.U.U.U.U.U.U.U.U.U.U.U.U.U.U.U.U.U.x.h.z.U.U.U.U.U.U.U.U.U.U.U.U."
};
