/* XPM */
static char *result[] = {
/* columns rows colors chars-per-pixel */
"64 64 196 2 ",
"   c #010101",
".  c #0A0605",
"X  c #010D05",
"o  c #0B0806",
"O  c #060708",
"+  c #060809",
"@  c #0C0B0B",
"#  c #120D0B",
"$  c #1C0E0D",
"%  c #051509",
"&  c #061A0C",
"*  c #16110E",
"=  c #0D0F10",
"-  c #0E1112",
";  c #141312",
":  c #1A1512",
">  c #1E1915",
",  c #131718",
"<  c #161A1A",
"1  c #1A1C1D",
"2  c #20110F",
"3  c #281513",
"4  c #211B17",
"5  c #241E19",
"6  c #371C1A",
"7  c #08200F",
"8  c #0A2812",
"9  c #0D3518",
"0  c #103B1B",
"q  c #27201B",
"w  c #2B241E",
"e  c #3F211E",
"r  c #1D2222",
"t  c #222425",
"y  c #252B2C",
"u  c #2B2A28",
"i  c #342B24",
"p  c #352C25",
"a  c #3A2F28",
"s  c #3C322A",
"d  c #282F30",
"f  c #2C3334",
"g  c #2F3738",
"h  c #343434",
"j  c #373B3C",
"k  c #42221F",
"l  c #512A26",
"z  c #572D29",
"x  c #43372E",
"c  c #463A31",
"v  c #4A3D34",
"b  c #62332F",
"n  c #6A3732",
"m  c #763D38",
"M  c #11431F",
"N  c #124620",
"B  c #144B23",
"V  c #155326",
"C  c #185C2A",
"Z  c #19622D",
"A  c #1C6C32",
"S  c #1E7535",
"D  c #207637",
"F  c #217C39",
"G  c #4E4136",
"H  c #514439",
"J  c #57493D",
"K  c #594A3E",
"L  c #7C423C",
"P  c #363F40",
"I  c #3A4445",
"U  c #3C4647",
"Y  c #444445",
"T  c #404A4C",
"R  c #4B4B4B",
"E  c #5D4D41",
"W  c #444F51",
"Q  c #475254",
"!  c #4D595A",
"~  c #565859",
"^  c #635345",
"/  c #685749",
"(  c #6C5A4B",
")  c #715E4F",
"_  c #756152",
"`  c #7A6555",
"'  c #7E6958",
"]  c #556264",
"[  c #5B696B",
"{  c #5F6E70",
"}  c #676767",
"|  c #606F71",
" . c #657576",
".. c #6A7B7D",
"X. c #737373",
"o. c #83443E",
"O. c #8A4842",
"+. c #964E47",
"@. c #A4554D",
"#. c #B35D54",
"$. c #836D5B",
"%. c #87705E",
"&. c #89725F",
"*. c #B96057",
"=. c #BB6159",
"-. c #8C7562",
";. c #947B67",
":. c #967D69",
">. c #C6675E",
",. c #CF6C62",
"<. c #DB7268",
"1. c #E3766B",
"2. c #E7786E",
"3. c #E9796E",
"4. c #EC7B71",
"5. c #F37E73",
"6. c #22843D",
"7. c #23883E",
"8. c #258D41",
"9. c #259343",
"0. c #289545",
"q. c #279A46",
"w. c #289A47",
"e. c #289E48",
"r. c #28A049",
"t. c #9D826D",
"y. c #A0856F",
"u. c #A28671",
"i. c #A68A74",
"p. c #AA8D76",
"a. c #AC8F78",
"s. c #AE917A",
"d. c #B4967E",
"f. c #B6987F",
"g. c #F78074",
"h. c #FB8276",
"j. c #FF8478",
"k. c #6E8082",
"l. c #718385",
"z. c #76898B",
"x. c #7B8E90",
"c. c #7E9295",
"v. c #858585",
"b. c #8C8C8C",
"n. c #918D83",
"m. c #84999C",
"M. c #959595",
"N. c #B79880",
"B. c #BB9C83",
"V. c #899EA1",
"C. c #8BA1A4",
"Z. c #8FA6A9",
"A. c #92A9AC",
"S. c #9AB2B5",
"D. c #9CB5B8",
"F. c #A9A9A9",
"G. c #B4B6AD",
"H. c #A1BABD",
"J. c #B4B4B4",
"K. c #BDBDBD",
"L. c #C09F86",
"P. c #C1A086",
"I. c #C4A389",
"U. c #D4B094",
"Y. c #EDB096",
"T. c #F9CFAE",
"R. c #A4BFC2",
"E. c #ABC6C9",
"W. c #B2CED2",
"Q. c #B6D3D6",
"!. c #B9D6D9",
"~. c #BCDADE",
"^. c #BFDDE1",
"/. c #C5C5C5",
"(. c #CACACA",
"). c #DED0C4",
"_. c #D4D4D4",
"`. c #DBDBDB",
"'. c #FFE3CB",
"]. c #C0DFE2",
"[. c #DFDFE0",
"{. c #C3E2E6",
"}. c #C6E5E9",
"|. c #C8E7EB",
" X c #CAEAED",
".X c #CDEDF1",
"XX c #CFF0F4",
"oX c #D1F2F6",
"OX c #DEF6F6",
"+X c #D3F5F9",
"@X c #D6F8FC",
"#X c #D9FBFF",
"$X c #E5E5E5",
"%X c #ECECEC",
"&X c #F4F4F4",
"*X c #FFFFFF",
/* pixels */
"@X@X@X@X@X@X@X@X@X@X@X@X@X@X@X@X@X@X@X@X@X@X@X@X@X@X@X#X@X@X@X@X@X@X@X@X@X@X@X@X@X@X@X@X@X@X@X@X@X@X@X@X@X@X+X@X@X@X@X@X@X@X@X@X",
"@X@X@X@X@X@X@X@X@X@X@X@X@X@X@X@X@X@X@X@X@X@X@X@X@X@XXXS.| Q ! m.].#X@X@X@X@X@X@X@X@X@X@X@X@X@X@X@X@X@X@X@X@X@X@X@X@X@X@X@X@X@X@X",
"@X@X@X@X@X@X@X@X@X@X@X@X@X@X@X@X@X@X@X@X@X@X@X@X@X^.! O         y Z.@X@X@X@X@X@X@X@X@X@X@X@X@X@X@X@X@X@X@X@X@X@X@X@X@X@X@X@X@X@X",
"@X@X@X@X@X@X@X@X@X@X@X@X@X+X@X@X@X@X@X@X@X@X@X@X.XQ   w -.d.i.E   @ | {.@X@X@X@X+X#X@X@X@X@X@X@X@X@X@X@X@X@X@X@X@X@X@X@X@X@X@X@X",
"@X@X@X@X@X@X@X@X@X@X@X@X@X@X@X@X@X@X@X@X@X@X@X#XV.  p B._ a H s.t.4   j | ] Q U U  .E.+X@X@X@X@X@X@X@X@X@X@X@X@X@X@X@X+X@X@X@X@X",
"@X@X@X@X@X@X@X@X@X@X@X@X@X@X@X@X@X@X@X@X@X@X@X+XT   u.^   o   @ ` B.G         o .   + ..oX@X@X@X@X@X@X@X@X@X@X@X@X@X@X@X@X@X@X@X",
"@X@X@X@X@X@X@X@X@X@X@X@X@X@X@X@X@X@X@X@X@X@X@X^.r 4 f.: 2 #.O.$   v f.p.u.a.B.B.s.$.:   l.@X@X@X@X@X@X@X@X@X@X@X@X@X@X@X@X@X@X@X",
"@X@X@X@X@X@X@X@X@X@X@X@X@X@X@X@X@X@X@X@X@X@X#XD.O H u.  b 3.4.>.l   > E f.T.T.E p -.s.* ; W.#X@X@X@X@X@X@X@X@X@X@X@X@X@X@X@X@X@X",
"@X@X@X@X@X@X@X@X@X@X@X@X@X@X@X+X@X@X@X@X@X@X#Xk.  $.)   O.4.3.h.2.L #   L Y.5.z .   :.)   x.@X@X@X@X@X@X@X@X@X@X@X@X@X@X@X@X@X@X",
"@X@X@X@X@X@X@X@X@X@X@X@X@X@X@X@X@X@X@X@X@X@XC.< . d.s o =.3.4.h.h.h.>.#.3.h.5.5.@.. J :.  [ @X@X@X+X@X@X@X@X@X@X@X@X@X@X@X@X@X@X",
"@X@X@X@X@X@X@X@X@X@X@X@X@X@X@X@X@X@X@X@X}. .. . _ N.# 6 <.4.5.h.h.h.j.j.h.h.h.h.#.  K :.  | #X@X@X@X@X@X@X@X@X@X@X@X@X@X@X@X@X@X",
"@X@X@X@X@X@X@X@X@X@X@X@X@X@X@X@X@X@X@XQ.I   > t.i.w   n 2.4.h.h.h.#.@.h.h.h.h.h.m   :./   C.#X@X@X@X@X@X@X@X@X@X@X@X@X@X@X@X@X@X",
"@X@X@X@X@X@X@X+X@X@X@X@X@X@X@X@X@X@X XI   c B.' o   n ,.4.2.5.h.5.k # ,.h.h.h.3.3 $ f.5 < !.@X@X@X@X@X@X@X@X@X@X@X@X@X@X@X@X@X@X",
"@X@X@X@X@X@X@X@X@X@X@X@X@X@X@X@X@X@Xm.  x B.H   $ +.1.5.1.l b 5.h.@.z <.h.h.j.#.  G p.  T +X@X@X@X@X@X@X@X@X@X@X@X@X@X@X@X@X@X@X",
"@X@X@X@X@X@X@X@X@X@X@X@X@X@X@X@X@X+XT   i.E   k *.4.g.h.3.6 3 2.h.h.g.h.h.g.h.m   -.)   m.#X@X@X@X@X@X@X@X@X@X@X@X@X@X@X+X@X@X@X",
"@X@X@X@X@X@X@X@X@X@X@X@X@X@X@X@X@X Xd ; N.: 2 >.4.4.h.h.j.>.>.h.h.h.>.z >.h.h.n   :.(   x.@X@X@X@X@X@X@X@X@X@X@X@X@X@X@X@X@X@X@X",
"@X@X@X@X@X@X@X@X@X@X@X@X@X@X@X@X@X.Xg # f.w o +.<.4.h.h.h.j.1.,.h.h.@.  m h.j.#.  G s.  I XX@X@X@X@X@X@X@X@X@X@X@X@X@X@X@X@X@X@X",
"@X@X@X@X@X@X@X@X@X@X@X@X@X@X@X@X@X@X]   $.;.o   z >.4.g.h.h.n $ =.h.m   m h.h.3.6 @ f.s O H.#X@X@X@X@X@X@X@X@X@X@X@X@X@X@X@X@X@X",
"@X+X@X@X@X@X@X@X@X@X@X@X@X@X@X@X@X@XR.- # t.p.i   $ O.<.4.j.O.  $ k o # >.h.h.h.o.  _ %.  [ #X@X@X@X@X@X@X@X@X@X@X@X@X@X@X@X@X@X",
"@X@X@X@X@X@X@X@X@X@X@X@X@X@X@X@X@X@X@Xz.O . ( B._ #   z <.4.3.m $ . 2 @.h.h.h.h.,.$ w d.# f  X@X@X@X@X@X@X@X@X@X@X@X@X@X@X@X@X@X",
"@X@X@X+X@X@X@X@X@X@X@X@X@X@X@X#X+XoX@X@XV.t   w t.s.5 . *.2.4.g.<.>.1.h.j.h.h.j.5.e # f.q < {.@X@X@X@X@X@X@X@X@X@X@X@X@X@X@X@X@X",
"@X@X@X@X@X@X@X@X@X@X@X@X@X@X}.x.W I ] R.@X!.] +   ;.'   L 4.3.g.h.h.>.o.m m m m b   w f.* y |.@X@X@X@X@X}.].^. X@X#X@X@X@X@X@X@X",
"@X@X@X@X@X@X@X@X@X@X@X@X#X~.P     .   @ x.@X@Xm.. s d.@ 6 <.2.g.h.@.2             4 y.`   ] @X@X@X!.z.T t < < y ! C.}.@X@X@X@X@X",
"@X@X@X@X@X@X@X@X@X@X@X@X+X!   x s.B.%.* @ H.#X Xg . d.a @ =.4.2.o.# + ) u.t.t.y.u.B.%.o , E.#X Xl.<     4 i i *     f Z.+X@X@X@X",
"@X@X@X@X@X@X@X@X@X@X@X@XS.+ u I.^ p i.-.  T XX#X..  $.`   m >.b   2 :.p.K H H v v w   - C.#X~.T   # ( a.f.d.d.f.t.H   + ...X@X@X",
"@X@X@X@X@X@X@X@X@X@X@X.XU   :.$.    5 I.s   Z.#XE.+ p B.:   $   w d.-.o   o = @ @ < W D.#X{.U   x f.:.x #   . > K d.t.>   ..+X@X",
"@X@X@X@X@X@X@X@X@X@X@XC.  x L.4 X 8   _ u.  g }..XI   %.i.s q E L.(   , c.E.E.E.E.~.+X#X+X[   v B.H   o d R Y t   o $.d.> o A.@X",
"@X@X@X@X@X@X@X@X@X@X}.h   p.)   N F % ; L.v   m.#XD.- . ( d.f.u.x   t D.@X#X#X@X#X@X@X@XH.@ q B.c   j F.[.$X$X_.b.1   ' t.  g }.",
"@X@X@X@X@X@X@X@X@X#Xx.  H B.# % F w.V   ^ d.. W @X@XC.1   . @     U W.#X@X@X@X@X@X@X@X@X!   -.`   Y _.[./.%X&X*X*XK.5 @ s.H   m.",
"@X@X@X@X+X@X@X@X@X^.t @ d.E   B 0.e.8.& @ d.d.G.@X@X@XQ...U j ! C. X#X@X@X@X@X@X@X@X#X].r > B.4 < K.%XX.< /.*X*X*X*XM.  E t.  I ",
"@X@X@X@X@X@X@X@X@X..  ^ s.o & 8.w.e.e.C   G T.'.OX@X@X@X#X+XXX@X#X@X@X@X@X@X@X@X@X@X#XR.. G u.  ~ %X$X} u `.*X`.X._.$Xt > N.: - ",
"@X@X@X@X@X@X@X@XQ.< * B.v   C w.e.e.e.0.7 . i.T.n.C.@X@X@X@X@X@X@X@X@X@X@X@X@X@X@X@XE.Q   ( $.  b.%X%X`._.*X*Xv.  M.*XR O s.i   ",
"@X@X@X@X@X@X@X+X[   _ u.. 7 8.q.r.9.N A A   x U.i - E.@X@X@X@X@X@X@X@X@X@X@X@X@X|...-   4 N.$.  b.%X$X~ } *X&XK.X.[.*XR o s.i   ",
"@X@X@X@X@X@X@XE.@ 5 I.p   Z 0.e.r.6.% B 0.9   :.'   ! +X@X@X@X@X@X@X@X@X@X@X#XQ.U   : ' B.t.p   X.%X`.1 t J.j b.*X*X%Xh : N.4 + ",
"@X@X@X@X@X@XXXQ   -.;.  9 8.9.0.q.q.7.9.r.S X w I.u o D.#X@X@X@X@X@X@X@X@X@XQ.g   c B.-.w     < M.%X%XR   @   v.*X*XJ.o x a.. f ",
"@X@X@X@X@X#XS.O i I.w X A w.0 9 9.r.e.e.e.q.9   $.;.  T XX@X@X@X@X@X@X@X@X{.I   E B.G   = ~ F.(.$X$X&X_.~ j X.%X*X$XY   :.(    .",
"@X@X@X@X@XoXT   :.'   0 8.w.V 0 q.r.q.r.e.r.S X 4 P.s   A.#X@X@X@X@X@X@X+X{   G B.p   G J.$X%X&X%X&X*X*X*X&X*X*X`.R   H f.* 1 W.",
"@X@X@X@X#X!.- i B.4 X A 0.0.w.w.q.r.r.q.e.e.e.M   ` ;.  | @X@X@X@X@X@X#XD.= 5 B.v   ~ _.%X%X&X&X*X*X&X$X&X*X*X*Xv.  5 U.H   k.@X",
"@X@X@X@X#XE.@ x f.+   7 D 0.w.e.e.e.r.q.e.e.B %   H a.  ] @X@X@X@X@X@X+XQ   -.$.  Y `.%X%X&X*X*X*X*XM.t /.*X*X*X(.r # N.J   c.#X",
"@X@X@X@X@X].r : P.E   + D w.e.e.e.r.r.r.e.r.0   * d._   l.@X@X@X@X@X#XE.= w B.> < K.%X%X&X*X*X*X*X*XK.~ _.*X*X*X*XM.  H p.. P .X",
"@X@X@X@X@X Xf   d.$.  0 8.w.e.e.e.q.6.7.r.r.S X > U.v   m.#X@X@X@X@X#Xz.  ` $.  } %X%X&X*X*X*X*X*X*X*X&X*X*X*X*X*X%Xh @ f.p - E.",
"@X@X@X@X#XC.O s P.4 X S w.e.e.e.r.7.% N r.r.r.N   _ u.  j |.@X@X@X@X+XQ   a.c o J.%X%X*X*X*X*X*X*X(.(.*X*X*X*X*X*X*Xv.  $._   l.",
"@X@X@X@X{.g   p.(   M 0.e.e.e.e.q.9.B A r.r.r.7.% * B.c   m.@X@X@X@X|.y : f.> u _.%X&X*X*X*X*X*X&XY h &X*X*X*X*X*X*XK.. J t.  ! ",
"@X@X@X@Xx.  H B.$ % F w.e.e.w.e.r.r.r.r.q.q.r.r.V   ^ d.+ y ~.@X@X#X~.1 w d.+ R $X%X*X*X*X*X*X*X*XF.F.&X*X*X*X*X*X*X`.< s s.  j ",
"@X@X@X].t @ f.K   V 0.e.r.C B r.r.q.q.r.r.q.r.r.7.& @ f.E   l.@X@X#X~.< i s.. R $X%X*X*X*X*X*X*X*X*X*X*X*X*X*X*X*X*X$X1 i s.+ f ",
"@X@X#XZ.  K d.+ & 6.0.0.7.9 8 7.r.r.r.r.r.7.Z 7.r.C   G f.+ g  X@X#X^.1 w d.@ Y $X&X*X*X*X*X*X%Xv./.*X*X*X*X*X*X*X*X_., a p.  j ",
"@X@X#Xz.  %.`   & 0 D 7.r.7.7.r.q.r.r.q.r.C X A C 9   * L.5 < {.#X@X Xy : f.: y `.&X*X*X*X*X*X(.; v.*X*X*X*X*X*X*X*XK.. J t.  ! ",
"@X@X#Xm.  ^ s.:     V e.r.r.r.r.q.r.q.r.r.7.A 6.%   . K B.# f  X@X@X+XQ   s.c o J.%X*X*X*X*X*X&X/.$X*X*X*X*X*X*X*X*Xv.  %._   l.",
"@X@X@X!.1 # P.i.o % D w.e.e.e.e.r.r.q.e.e.r.r.e.N   c Y.E    .@X@X@X#Xz.  ` $.  } %X*X*X*X*X*X*X*X*X*X*X*X*X*X*X*X%Xh o f.p = R.",
"@X@X@X{.r . N.(   N 0.e.e.e.e.e.r.q.r.r.e.e.e.e.7.% - P.K   z.@X@X@X#XE.= w B.> < K.&X*X*X*X*X*X*X*X*X*X*X*X*X*X*XM.  H s.. j  X",
"@X@X#Xl.  J B.# % F w.e.e.e.w.e.S 8 A r.e.e.e.e.r.V   K f.@ r ~.@X@X@X+XQ   -.'   R $X*X*X*X*X*X*X*X*X*X*X*X*X*X(.1 @ d.H   c.#X",
"@X#X!.r # N.J   V w.w.e.e.e.e.r.S 7 A e.e.e.e.e.r.9.7 @ s.^   ..@X@X@X#XH.@ 5 B.v   ~ $X*X*X*X*X*X*X*X*X*X*X*X(.h   $.t.  f }.#X",
"@X@X .  / p.o & 8.w.e.e.e.e.e.e.e.9.e.e.e.r.r.q.6.q.Z   v B.* < Q.#X@X@X@X{   G B.p   Y /.&X*X*X*X*X*X*X*X*X[.d   / f.> o A.@X@X",
"#XE., : B.c   C 0.e.e.e.e.e.e.e.e.e.e.e.e.q.r.6.X V q.8   u._   ] @X@X@X@X{.P   E L.v   ; } J.`.%X&X%X%X*X*X).G ` N.w   ..+X@X@X",
"@X]   ' t.  8 8.0.w.Z A w.e.e.e.e.e.e.e.e.e.r.7.N S r.A   a I.q @ E.@X@X@X#XQ.g   c B.-.w     < h h u j ).'.'.T.u.5   ] .X@X@X@X",
"S.@ q I.i   A w.e.9.7 8 w.e.e.e.e.e.e.e.e.e.e.e.r.r.q.q.9   ;.&.  Q XX@X@X@X@XQ.I   > $.B.:.K i > ; 4 H Y.T.P.K   O  ..X@X@X@X@X",
"I   ;.%.  9 9.e.e.e.S 8.e.e.e.e.r.r.r.r.e.r.r.r.r.r.r.r.S X w I.i + H.#X@X@X@X#X}...-   > ^ t.s.f.f.f.d.-.v @   y C.@X@X@X@X@X@X",
"  4 B.w   C 6.7.8.8.8.8.8.6.6.8.7.7.7.7.7.7.7.7.7.7.7.7.6.9   $.$.  l.#X@X@X@X@X@X@XE.] <     . * : *       y l.^.@X@X@X@X@X@X@X",
"  w L.:   X X X X X X X X X X X X X X X X X X X X X X X X     ) ;.  ..#X@X@X@X@X@X@X@X@X!.C.[ U f y g T ..S.{.@X@X@X@X@X@X@X@X@X",
"1 . i.;.s s a p p a a a a a a a a a a s p s a a a a a a s s K I.G   C.#X@X@X@X@X@X@X@X@X@X#X@X+X X X.X@X#X@X@X@X@X@X@X@X@X@X@X@X",
"z.O : -.f.f.f.f.f.f.N.N.N.N.N.d.f.f.d.f.f.d.d.f.f.f.f.f.f.f.s.K   f {.@X@X@X@X@X@X@X@X@X@X@X@X@X@X@X#X@X@X@X@X@X@X@X@X@X@X@X@X@X",
".X..O   . + . . . + O o . . . . . . .     . . .   + . . . +     y E.#X@X@X@X@X@X@X@X@X@X@X@X@X@X@X@X@X@X@X@X@X@X@X@X@X@X@X@X@X@X",
"@X+XD.[ T U T U U T U U W U U U U T T T T T T T U T T T T U Q z.~.@X@X@X@X@X@X@X@X@X@X@X@X@X@X@X@X@X@X@X@X@X@X@X@X@X@X@X@X@X@X@X",
"@X@X#X#X+X+X+X+X+X+X+X+X+X+X+X+X+X+X+X+X+X+X+X+X+X+XoX+X+X+X@X#X#X@X@X@X@X@X@X@X@X@X@X@X@X@X@X@X@X@X@X@X@X@X@X@X@X@X@X@X@X@X@X@X"
};
