/* XPM */
static char *result[] = {
/* columns rows colors chars-per-pixel */
"64 64 210 2 ",
"   c #1D1A1B",
".  c #2E1D1F",
"X  c #38241D",
"o  c #2E1E20",
"O  c #371E21",
"+  c #2A2526",
"@  c #332523",
"#  c #332D2D",
"$  c #3A3536",
"%  c #441D1A",
"&  c #57191E",
"*  c #6C191E",
"=  c #76171D",
"-  c #4B261E",
";  c #59281A",
":  c #523D1C",
">  c #782E0D",
",  c #662C13",
"<  c #7D3016",
"1  c #481E21",
"2  c #571E21",
"3  c #661D22",
"4  c #791D22",
"5  c #462629",
"6  c #5D262A",
"7  c #483739",
"8  c #513030",
"9  c #563838",
"0  c #6B2529",
"q  c #76282B",
"w  c #682E33",
"e  c #782E33",
"r  c #6B3235",
"t  c #68373B",
"y  c #753338",
"u  c #5C5019",
"i  c #68483B",
"p  c #5F3D40",
"a  c #633E41",
"s  c #683E41",
"d  c #444242",
"f  c #4C4746",
"g  c #594748",
"h  c #5C4B4D",
"j  c #4D4F51",
"k  c #545355",
"l  c #5B5354",
"z  c #565658",
"x  c #56595B",
"c  c #5C5B5C",
"v  c #644548",
"b  c #645657",
"n  c #645C5C",
"m  c #6B625E",
"M  c #5C5F60",
"N  c #645F61",
"B  c #5C6062",
"V  c #636364",
"C  c #6C6563",
"Z  c #646669",
"A  c #6C6A6B",
"S  c #756967",
"D  c #7C716C",
"F  c #686E71",
"G  c #716F70",
"H  c #6C7375",
"J  c #6E787A",
"K  c #797677",
"L  c #717B7D",
"P  c #86141B",
"I  c #97141C",
"U  c #A8161D",
"Y  c #B6151D",
"T  c #86310B",
"R  c #933409",
"E  c #9C390C",
"W  c #84371E",
"Q  c #A63B0B",
"!  c #881D22",
"~  c #981B21",
"^  c #A51D23",
"/  c #B21A21",
"(  c #BB1A21",
")  c #88252B",
"_  c #932A30",
"`  c #B8282E",
"'  c #AA2D33",
"]  c #D1141E",
"[  c #C51A22",
"{  c #CB1B22",
"}  c #DD1720",
"|  c #D21D25",
" . c #DC1A23",
".. c #E41A23",
"X. c #E81923",
"o. c #ED1B24",
"O. c #F11B24",
"+. c #C1252D",
"@. c #CB222A",
"#. c #D82428",
"$. c #D62831",
"%. c #E9212A",
"&. c #F02D36",
"*. c #EE343D",
"=. c #A57910",
"-. c #A45937",
";. c #EA521C",
":. c #EC6219",
">. c #8B3D43",
",. c #B93A49",
"<. c #C53E46",
"1. c #E43C45",
"2. c #8D4B4E",
"3. c #96464A",
"4. c #AD5358",
"5. c #B56849",
"6. c #80706F",
"7. c #847A77",
"8. c #A06E70",
"9. c #A27578",
"0. c #DA4E55",
"q. c #EF4B55",
"w. c #F2666B",
"e. c #EC6D76",
"r. c #9A8B10",
"t. c #C48612",
"y. c #8F807A",
"u. c #94847E",
"i. c #757E81",
"p. c #807F80",
"a. c #798486",
"s. c #798587",
"d. c #838282",
"f. c #898687",
"g. c #8B8A8B",
"h. c #9B8B84",
"j. c #918F8F",
"k. c #808F92",
"l. c #87989A",
"z. c #949494",
"x. c #9C9B9B",
"c. c #A78788",
"v. c #A3928B",
"b. c #A99B95",
"n. c #B19E96",
"m. c #B8A59B",
"M. c #939EA0",
"N. c #8FA2A4",
"B. c #93A6A9",
"V. c #9BB1B3",
"C. c #9DB5B8",
"Z. c #A4A4A4",
"A. c #A8A6A7",
"S. c #ABABAC",
"D. c #A2B6B9",
"F. c #A4BBBE",
"G. c #B4B3B4",
"H. c #BCBCBC",
"J. c #C49E99",
"K. c #F48287",
"L. c #C2AEA4",
"P. c #C6B2A7",
"I. c #CBB6AB",
"U. c #C1BFBF",
"Y. c #D6BDB2",
"T. c #E4B6B0",
"R. c #F5BAB8",
"E. c #DAC3B7",
"W. c #E4C8BD",
"Q. c #A6BEC1",
"!. c #ABC6C9",
"~. c #B3CCCF",
"^. c #B4CDD0",
"/. c #B6D2D5",
"(. c #B9D3D6",
"). c #BAD6DA",
"_. c #BDDADE",
"`. c #BFDDE0",
"'. c #C4C4C4",
"]. c #C8C7C8",
"[. c #CCCCCC",
"{. c #CFCFD0",
"}. c #CAD6D7",
"|. c #D3D4D4",
" X c #D7D8D9",
".X c #DCDCDD",
"XX c #E6CCC0",
"oX c #ECD4C7",
"OX c #F3DACD",
"+X c #F8DFD1",
"@X c #FDE3D5",
"#X c #FFE8D9",
"$X c #C1DEE1",
"%X c #DFDFE0",
"&X c #C4E2E5",
"*X c #C6E5E9",
"=X c #C8E7EA",
"-X c #CBE9ED",
";X c #D6EAEC",
":X c #CDEDF1",
">X c #D1F2F6",
",X c #D5F6FA",
"<X c #D6F8FC",
"1X c #D8FBFF",
"2X c #E4E4E4",
"3X c #E7E8E8",
"4X c #ECECED",
"5X c #F3F4F4",
"6X c #F9F8F8",
"7X c #FEFFFF",
/* pixels */
"<X<X<X<X<X<X<X<X<X<X<X<X<X<X<X<X<X<X<X<X<X<X<X<X<X<X<X<X<X<X<X<X<X<X<X1X1X<X1X1X<X<X<X<X<X<X<X<X<X<X<X<X<X<X<X<X<X<X<X<X<X<X<X<X",
"<X<X<X<X<X<X<X<X<X<X<X<X<X<X<X<X<X<X<X<X<X<X<X<X<X<X<X<X<X<X<X<X<X<X:X_.!.!.!.!.`.:X<X1X<X<X<X<X<X<X<X<X<X<X<X<X<X<X<X<X<X<X<X<X",
"<X<X<X<X<X<X<X<X<X<X<X<X<X<X<X<X<X<X<X<X<X<X<X<X<X<X<X<X<X<X<X<X(.l.V p r e e r a b a.!.>X<X,X,X<X<X<X<X<X<X<X<X<X<X<X<X<X<X<X<X",
"<X<X<X<X<X<X<X<X<X<X<X<X<X<X<X<X<X<X<X<X<X<X<X<X<X<X<X<X<X,X~.L v _ <.e.e.q.e.q...@.^ r A N.J J C.>X<X<X<X<X<X<X<X<X<X<X<X<X<X<X",
"<X<X<X<X<X<X<X<X<X<X<X<X<X<X<X<X<X<X<X<X<X<X<X<X<X<X,X<X&Xs.v ' %.&.R.7X7XK.w.q.o.o.O...4 c U.U.A B.<X<X<X<X<X<X<X<X<X<X<X<X<X<X",
"<X<X<X<X<X<X<X<X<X<X<X<X<X<X<X<X<X<X<X<X<X<X<X<X<X<X,X!.z _ $.O.%.O.w.e.w.O.o.O.o.o.o...w |.7X7X[.B :X<X<X<X<X<X<X<X<X<X<X<X<X<X",
"<X<X<X<X<X<X<X<X<X<X<X<X<X<X<X<X<X<X<X<X<X<X<X<X<X<XB.p ` %.O.o.o.o.X.o.X.o.o.o.o.o.o...t 2X7X7X|.c -X<X<X<X<X<X<X<X<X<X<X<X<X<X",
"<X<X<X<X<X<X<X<X<X<X<X<X<X<X<X<X<X<X<X<X<X<X<X<X<Xl.t $.O.o.o.o.o.o.o.o.O.o.o.o.o.o.o.} 2 z.5X4Xd.a.,X<X<X<X<X<X<X<X<X<X<X<X<X<X",
"<X<X<X<X<X<X<X<X<X<X<X<X<X<X<X<X<X<X<X<X<X<X<X<XB.t $.o.o.o.o.o.o.o.o.o.o.o.o.o.o.o.o.I l J Z N J &X<X<X<X<X<X<X<X<X<X<X<X<X<X<X",
"<X<X<X,X<X<X<X<X<X<X<X<X<X<X<X<X<X<X<X<X<X<X<XQ.9 $.o.o.o.o.o.o.o.o.o.o.o.o.o.o.o.o. .0 Q.<X).).>X<X<X<X<X<X<X<X<X<X<X<X<X<X<X,X",
"<X<X<X<X<X<X<X<X<X<X<X<X<X<X<X<X<X<X<X<X<X<X_.h +.O.o.o.o.o.o.o.o.%.o.o.o.o.o.o.o.o.Y l :X<X1X1X<X<X<X<X<X<X<X<X<X<X<X<X<X<X<X<X",
"<X<X<X<X<X<X<X<X<X<X<X<X<X<X<X<X<X<X<X<X<X>XH _ O.%.O.O.O.X.X...X.X.X.o.O.O.O.O.o.o.I i.<X<X<X<X<X<X<X<X<X<X<X<X<X<X<X<X<X<X<X<X",
"<X<X<X<X<X<X<X<X<X<X<X<X<X<X<X<X<X<X<X<X<XV.y ....[ U ! q q r r r r w q P U Y } o.o.P k.1X<X<X<X<X<X<X<X,X<X<X<X<X<X<X<X<X<X<X<X",
"<X<X<X<X<X<X<X<X<X<X<X<X<X<X<X<X<X<X<X<X*Xl ) ) t m f.A.U.[.|..X.X X{.'.S.z.S v 0 / P i.1X<X<X<X<X<X<X<X<X<X<X<X<X<X<X<X<X<X<X<X",
"<X<X<X<X<X<X<X<X<X<X<X<X<X<X<X<X<X<X<X<Xl.# C S.%X6X7X7X7X7X7X7X7X7X7X7X7X7X6X3XH.7.8 k -X<X<X<X<X<X<X<X<X<X<X<X<X<X<X<X<X<X<X<X",
"<X<X<X<X<X<X<X<X<X<X<X,X<X<X<X<X<X<X<XM.V H.6X7X7X7X7X7X7X7X7X7X7X7X7X7X7X7X7X7X7X7X}.G L :X<X<X<X<X<X<X<X<X<X<X<X<X<X<X<X<X<X<X",
"<X<X<X<X<X<X<X<X<X<X<X<X<X<X<X<X<X1XD.Z 2X7X7X7X7X7X7X5X4X%X X X|. X.X3X5X6X7X7X7X7X7X6Xf.s.<X<X<X<X<X<X<X<X<X<X<X<X<X<X<X<X<X<X",
"<X<X<X<X<X<X<X<X<X<X<X<X<X<X<X<X<X<XL H.7X7X7X4X[.A.f.G V c c n b c n V A a.b.'.3X6X7X7X2XZ *X<X<X<X<X<X<X<X<X<X<X<X<X<X<X<X<X<X",
"<X<X<X<X<X<X>X<X<X<X<X<X<X<X<X<X1X}.x ].7X.Xx.A c S u.n.P.E.E.W.W.E.E.I.m.h.D c n g.[.6X4XM !.<X<X<X<X<X<X<X<X<X<X<X<X<X<X<X<X<X",
"<X<X<X<X<X<X<X<X<X<X<X<X<X<X<X<X).Z x H g.c S m.W.@X@X#X@X@X@X@X#X#X@X@X#X#X#XoXP.7.k y.d.k c F.<X<X<X<X<X<X<X<X<X<X<X<X<X<X<X<X",
"<X<X<X<X<X<X<X<X<X<X<X<X<X<X<X,XJ z.4Xm m I.+X@X@XY.h.b.XX@X@X@X@X@X@XoXn.h.I.@X@X@XE.7.f  XH.B *X<X<X<X<X<X<X<X<X<X<X<X<X<X<X<X",
"<X<X<X<X<X<X<X<X<X<X<X<X<X<X<X^.c %X Xl I.#X@X@XY.b.g.+ S OX@X@X@X@XOXb.A.f $ I.@X@X#XE.f ].5XA V.1X<X<X<X<X<X<X<X<X<X<X<X<X<X<X",
"<X<X<X<X<X<X<X<X<X<X<X<X<X<X>XH x.3Xm $ I.@X@X@Xh.~.|.$ # Y.@X@X@X#XE.d.6XG + 7.@X@X@XW.f b ;XE.c &X<X<X<X<X<X<X<X<X<X<X<X<X<X<X",
"<X<X<X<X<X<X<X<X<X<X<X<X<X<X).c 3XG.D n I.@X@X@Xv.7 d G d.E.@X@X@X@XE.f f d j.v.@X@X@XE.m D Z.6XG V.1X<X<X<X<X<X<X<X<X<X<X<X<X<X",
"<X<X<X<X<X<X<X<X<X<X<X<X<X1X!.Z 5XZ.y.m L.@X@X@XW.b + d b.@X@X@X@X@X@Xv.# # D W.@X@X@XE.S y.x.7Xd.N.1X<X<X<X<X<X<X<X<X<X<X<X<X<X",
"<X<X<X<X<X<X<X<X<X<X<X<X<X<X$Xc .X{.m l n.@X@X@X@XW.J.Y.+XT.v.7.7.h.I.OXY.J.W.@X@X@X@XL.b n ].5XZ F.<X<X<X<X<X<X<X<X<X<X<X<X<X,X",
"<X<X<X<X<X<X<X<X<X<X<X<X<X<X<Xs.a.4XZ.$ 6.@X@XOXW.T.R.W.p.S j.G.G.x.C D E.R.T.W.OX@X#Xh.$ x.6Xx.Z -X<X<X<X<X<X<X<X<X<X<X<X<X<X<X",
"<X<X<X<X<X<X<X<X<X<X<X<X<X<X<X&Xj E.7X'.n E.v.C m m D m p.4X7X6X7X7X6XZ.b 6.C C m y.E.S S.7X.Xk !.1X<X<X<X<X<X<X<X<X<X<X<X<X<X<X",
"<X<X<X<X<X<X<X<X<X<X<X<X<X<X<X$XM .X7X7Xd.f f.|.4X3XG.S.6X].p.N V K U.7XH.A..X4X.Xx.g M 5X7X5XZ Q.1X<X<X<X,X<X<X<X<X<X<X<X<X<X<X",
"<X<X<X<X<X<X<X<X<X<X<X<X,X<X<X(.B 3X7X7X.XG.6X7X7X7X7X7X.X$         $ |.7X7X7X7X7X7X'.].7X7X6XK V.1X<X<X<X<X<X<X<X<X<X<X<X<X<X<X",
"<X<X<X<X<X<X<X<X<X<X<X<X<X<X<X*XM ].7X7X7X7X7X7X7X7X7X7X X# 5 s r 5 # {.7X7X7X7X7X7X7X7X7X7X2Xc ^.1X<X<X<X<X<X<X<X<X<X<X<X<X<X<X",
"<X<X<X<X<X<X<X<X<X<X<X<X<X<X<X<XN.Z 2X7X7X7X7X7X7X7X7X7X6X7.4.w.q.,.6.5X7X7X7X7X7X7X7X7X7X4Xf.L >X<X<X<X<X<X<X<X<X<X<X<X<X<X<X<X",
"<X<X<X<X<X<X<X<X<X<X<X<X<X<X<X<X:Xl.F s.].7X7X7X7X7X7X7X7X3Xc.4.4.p.%X7X7X7X7X7X7X7X7X.Xg.A L *X1X<X<X<X<X<X<X<X<X<X<X<X<X<X<X<X",
"<X<X<X<X<X<X<X<X<X<X<X<X<X<X<X<X<X<X_.s.A 6X7X7X7X7X7X7X7X7X7X2X4X7X7X7X7X7X7X7X7X7X7Xg.L ^.>X1X<X<X<X1X<X<X<X<X<X<X<X<X<X<X<X<X",
"<X<X<X<X<X<X<X<X<X<X,X`.`.,X<X<X<X<X<X>XF A.7X7X7X7X7X7X7X7X7X7X7X7X7X7X7X7X7X7X7X7X].M $X1X<X<X<X<X<X_._.,X<X<X<X<X<X<X<X<X<X<X",
"<X<X<X<X<X<X<X<X<X1X~.g p s.-X,X1X<X<X<XQ.p z. X4X2X%X4X6X7X7X7X7X7X7X7X4X2X2X4X%XS.f B.<X<X<X1X<X;Xk.g p Q.<X<X<X<X<X<X<X<X<X<X",
"<X<X<X<X<X<X<X<X<X!.k ~  .) x H N.$X:X1XN.r e g n b g b g..X6X7X7X6X3Xx.n v h N g 0 & k.<X:X*XB.H x e  .~ h Q.<X<X<X<X<X<X<X<X<X",
"<X<X<X<X<X<X<X<X>Xc U ..o. .9 S.f g n L g <.o.{ ( [ { ( 4 g d.B.Z.g.b 0 / [ { ( { X.Y 7 L C g 7 Z.g { O.X.Y h -X<X<X<X<X<X<X<X<X",
",X<X<X<X<X<X<X<X>XH P } X.[ S }.r #.@._ w 0.o.o.O.o.O.O.o.[ ~ 3 0 ! ( X.O.o.o.O.O.O.{ & ) @.#.r [.D / X.} I M >X<X<X<X<X<X<X<X<X",
"<X<X<X<X<X<X<X<X<X}.G 9 q 5 G Z.4 o.O./ y *.o.o.o.o.o.o.o.O.| 9.9.{ O.o.o.o.o.o.X.X...= ^ O.o.P x.a.5 q w Z ).<X<X<X<X<X<X<X<X<X",
"<X<X<X<X<X<X<X<X<X<X,X).!.V.B j 8 4 U P 3.&.O.o.o.o.%.o.o.O.` [.}.' O.O.o.o.o.o.o.o...P = U = 8 j B B.!./.>X<X<X<X<X<X<X<X<X<X<X",
"<X<X<X<X<X<X<X<X<X<X<X<X1X<X:X`./.B.F $ >.&.o.o.o.o.o.o.o.o.} 2.2.| o.o.o.o.o.o.o.o.X.P $ A N.(.`.-X1X1X<X<X<X<X<X<X<X<X<X<X<X<X",
"<X<X<X<X<X<X<X<X<X<X<X<X<X<X<X1X<X1X<Xl.>.&.o.o.o.o.o.o.o.o.#.8.9.@.O.o.o.o.o.o.o.o.X.P s.<X1X<X<X<X<X<X<X<X<X<X<X<X<X<X<X<X<X<X",
"<X<X<X<X<X<X<X<X<X<X<X<X<X<X<X<X<X<X1XV.>.*.o.o.o.o.o.o.o.O.` [.|.' o.o.o.o.o.o.o.o.} * N.1X<X<X<X<X<X<X<X<X<X<X<X<X<X<X<X<X<X<X",
"<X<X<X<X<X<X<X<X<X<X<X<X<X<X<X<X<X<X<X/.v 1.o.o.o.o.o.o.o.o. .2.2.| o.o.o.o.o.o.o.o.] 0 !.,X<X<X<X<X<X<X<X<X<X<X<X,X<X<X<X<X<X<X",
"<X<X<X<X<X<X<X<X<X<X<X<X<X<X<X<X<X<X<X:Xb <.O.o.o.o.o.o.o.o.| 8.9.@.o.o.o.o.o.o.o.o.Y g *X,X<X<X<X<X<X<X<X<X<X<X<X<X<X<X<X<X<X<X",
"<X<X<X<X<X<X<X<X<X<X<X<X<X<X<X<X<X<X<X<Xl.>.*.O.o.o.o.o.o.O.` [.|.' X.o.o.o.o.O.O...= s.<X<X<X<X<X<X<X<X<X<X<X<X<X<X<X<X<X<X<X<X",
"<X<X<X<X<X<X<X,X<X<X<X<X<X<X<X<X<X<X<X<X`.k ' [ |  ...X.o.o.#.5.4.#.o.o.....#.| [ I 8 (.1X<X<X<X<X<X<X<X<X<X<X<X<X<X<X<X<X<X<X<X",
"<X<X<X<X<X<X<X<X<X<X<X<X<X<X<X<X<X<X<X<X1XB.+ . X O 1 & 3 < t.=.=.=.W 3 2 1 1 @ o + l.<X<X<X<X<X<X<X<X<X<X<X<X<X<X<X<X<X<X<X<X<X",
"<X<X<X<X<X<X<X<X<X<X<X<X<X<X<X<X<X<X<X<X<X>Xi.@ 6 6 1 - . : r.u u r.u o O 1 2 & . F :X<X<X<X<X<X<X<X<X<X<X<X<X<X<X<X<X<X<X<X<X<X",
"<X<X<X<X<X<X<X<X<X<X<X<X<X<X<X<X<X<X<X<X<X<X-XH y $.}  . .| ;.:.:.;.#.{  ...{ = V *X<X<X<X<X<X<X<X<X<X<X<X<X<X<X<X<X<X<X<X<X<X<X",
"<X<X<X<X<X<X<X<X,X<X<X<X<X<X<X<X<X<X<X<X<X<X1X=Xj 6 ` %.O.O.X.o.O.O.O.O.X./ & d $X<X<X<X<X<X<X<X<X<X<X<X<X<X<X<X<X<X<X<X<X<X<X<X",
"<X<X<X<X<X<X<X<X,X<X<X<X<X<X<X<X<X,X<X<X<X<X<X1Xs.w 0 3 ^ { } X.o.} { ^ 3 0 0 L <X<X<X<X<X<X<X<X<X<X<X<X<X<X<X<X<X<X<X<X<X<X<X<X",
"<X<X<X<X<X<X<X<X<X<X<X<X<X<X<X<X<X<X<X<X<X<X<X1X!.r %.( 3 5 v t y s 7 * / %.e C.1X<X<X<X<X<X<X<X<X<X<X<X<X<X<X<X<X<X<X<X<X<X<X<X",
"<X<X<X<X<X<X<X<X<X<X<X<X<X<X<X<X<X<X<X<X<X<X<X<X-Xl +...U G 3X.X.X4XK I ..@.v &X<X<X<X<X<X<X<X<X<X<X<X<X<X<X<X<X<X<X<X<X<X<X<X<X",
",X<X<X<X<X<X<X<X<X<X<X<X<X<X<X<X<X<X<X<X<X<X<X1X<XF 5 ; % A 7X7X7X7XK % ; - B ,X1X<X<X<X<X<X<X<X<X<X<X<X<X<X<X<X<X<X<X,X<X<X<X<X",
"<X<X<X<X<X<X<X<X<X<X<X<X<X<X<X<X<X<X<X<X<X<X<X_.Q.Z , E < C 6X7X7X7XK > E , B F.).<X<X<X<X<X<X<X<X<X<X<X<X<X<X<X<X<X<X<X<X<X<X<X",
"<X<X<X<X<X<X<X<X<X<X<X<X<X<X<X<X<X<X<X<X<X,XB.f i : ; Q T C 7X6X7X7XK < Q , - i h l.,X<X<X<X<X<X<X<X<X<X<X,X<X<X<X<X<X<X<X<X<X<X",
"<X<X,X<X<X<X<X<X<X<X<X<X<X<X<X<X<X<X<X,X1X}.9 -.5.Q E Q R C 6X6X7X6XK T Q Q Q 5.-.8 ^.1X<X<X<X<X<X<X<X<X<X<X<X<X<X<X<X<X<X<X<X<X",
"<X<X<X<X<X<X<X<X<X<X<X<X<X<X<X<X<X<X<X,X>XB.- R R R T R > d f.g.g.g.f > T T R R R ; l.-X,X<X<X<X<X<X<X<X<X<X<X<X<X<X<X<X<X<X<X<X",
"<X<X<X<X<X<X<X<X<X<X<X<X<X<X<X<X<X<X<XF.L c # X X X @ @ X $ k z z z $ X X X X X X # k H B.>X<X<X<X<X<X<X<X<X<X<X<X<X<X<X<X<X,X<X",
"<X<X<X<X<X<X<X<X<X<X<X<X<X<X<X<X<X<X<X&XD.l.a.H Z B c c z z M M M M c k z M B B A a.l.V.).,X<X<X<X<X<X<X<X<X<X<X<X<X<X<X<X<X<X<X",
"<X<X<X<X<X<X<X<X<X<X<X<X,X<X<X<X<X<X<X1X<X<X<X:X-X*X&X).(.(.^.^.~.^./.(.).$X*X-X>X,X<X<X1X<X<X<X<X<X<X<X<X<X<X<X<X<X<X<X<X<X<X<X",
"<X<X<X<X<X<X<X<X<X<X<X<X<X<X<X<X<X<X<X<X<X<X<X<X<X1X<X1X1X1X1X1X1X1X1X1X1X1X1X<X<X<X<X<X<X<X<X<X<X<X<X<X<X<X<X<X<X<X<X<X<X<X<X<X"
};
