/* XPM */
static char *result[] = {
/* columns rows colors chars-per-pixel */
"64 64 219 2 ",
"   c #311C1E",
".  c #34231E",
"X  c #3E241A",
"o  c #2B1C21",
"O  c #361F20",
"+  c #392526",
"@  c #342C2E",
"#  c #3C3838",
"$  c #581C1E",
"%  c #63191D",
"&  c #7A181E",
"*  c #46271C",
"=  c #5C281A",
"-  c #622A1A",
";  c #763215",
":  c #461E21",
">  c #581D21",
",  c #681E22",
"<  c #771D21",
"1  c #482727",
"2  c #572629",
"3  c #55332D",
"4  c #453B3A",
"5  c #593939",
"6  c #6A2629",
"7  c #752428",
"8  c #722A2D",
"9  c #6D2D30",
"0  c #693438",
"q  c #703131",
"w  c #753336",
"e  c #5C5718",
"r  c #7C7015",
"t  c #544437",
"y  c #674938",
"u  c #655139",
"i  c #3E3F40",
"p  c #613E42",
"a  c #494545",
"s  c #564647",
"d  c #5C4B4C",
"f  c #55514A",
"g  c #594E51",
"h  c #535455",
"j  c #5E5254",
"k  c #565759",
"l  c #5B5C5D",
"z  c #644748",
"x  c #685544",
"c  c #625255",
"v  c #675A58",
"b  c #645B5C",
"n  c #7A634D",
"m  c #6B615D",
"M  c #5D5F60",
"N  c #665F60",
"B  c #715F60",
"V  c #5E6163",
"C  c #646364",
"Z  c #6B6463",
"A  c #666866",
"S  c #656B6D",
"D  c #6C6B6C",
"F  c #766B68",
"G  c #73706F",
"H  c #6D7274",
"J  c #757374",
"K  c #777778",
"L  c #737B7D",
"P  c #7C7B7C",
"I  c #9E0F18",
"U  c #86151C",
"Y  c #99151C",
"T  c #B00F19",
"R  c #A9141C",
"E  c #BD161E",
"W  c #89330B",
"Q  c #98360A",
"!  c #A53B0B",
"~  c #871D22",
"^  c #931C21",
"/  c #9C1C21",
"(  c #A21A20",
")  c #B51920",
"_  c #BA1A21",
"`  c #862227",
"'  c #902C32",
"]  c #B42A2F",
"[  c #A82B32",
"{  c #A8383D",
"}  c #C9161E",
"|  c #D4141E",
" . c #C41A22",
".. c #CD1B22",
"X. c #DB1720",
"o. c #D41B22",
"O. c #DB1B23",
"+. c #E51A23",
"@. c #ED1B24",
"#. c #EB1D26",
"$. c #F11B24",
"%. c #CA232B",
"&. c #C52C33",
"*. c #E8212A",
"=. c #EF2831",
"-. c #A74A18",
";. c #B47612",
":. c #B04F34",
">. c #E96917",
",. c #DA472E",
"<. c #943D43",
"1. c #E73B45",
"2. c #9B575A",
"3. c #A6474B",
"4. c #857B5B",
"5. c #877B76",
"6. c #907171",
"7. c #AE7660",
"8. c #CE464E",
"9. c #EF5157",
"0. c #EC6655",
"q. c #DA6D61",
"w. c #EF6E73",
"e. c #978811",
"r. c #C28412",
"t. c #A5805E",
"y. c #8F826E",
"u. c #93837D",
"i. c #EDA845",
"p. c #FCB349",
"a. c #D18061",
"s. c #D6AD67",
"d. c #CEA175",
"f. c #EDC97A",
"g. c #757F81",
"h. c #807F80",
"j. c #7A8486",
"k. c #838283",
"l. c #85898A",
"z. c #8C8A8B",
"x. c #978C87",
"c. c #8C8F91",
"v. c #889496",
"b. c #8C9B9E",
"n. c #949394",
"m. c #989696",
"M. c #9C9C9C",
"N. c #A5938C",
"B. c #A99696",
"V. c #B7A49B",
"C. c #969EA0",
"Z. c #92A1A4",
"A. c #99A6A8",
"S. c #99AAAD",
"D. c #9DAFB1",
"F. c #9EB0B3",
"G. c #A4A3A4",
"H. c #A8A7A7",
"J. c #ABABAC",
"K. c #BEAAA1",
"L. c #A4B8BB",
"P. c #B3B3B4",
"I. c #B8B7B8",
"U. c #BDBDBE",
"Y. c #F6888C",
"T. c #F3BA88",
"R. c #C7B2A8",
"E. c #C5B7B1",
"W. c #D3BDB2",
"Q. c #F0B4B2",
"!. c #FDD681",
"~. c #D9C3B7",
"^. c #EAC4BB",
"/. c #A7BDC0",
"(. c #ABBEC2",
"). c #ADC2C5",
"_. c #B2C7CA",
"`. c #B3C9CD",
"'. c #B7CED1",
"]. c #B9CED1",
"[. c #BCD2D6",
"{. c #BED7DA",
"}. c #C3C3C4",
"|. c #C5C8C8",
" X c #CACCCC",
".X c #CDCFD0",
"XX c #C3D8DB",
"oX c #D3D4D4",
"OX c #D7DADA",
"+X c #DCDCDC",
"@X c #F6CDC3",
"#X c #EBD3C6",
"$X c #EED5C8",
"%X c #F5D7CB",
"&X c #F4DBCD",
"*X c #F9DED1",
"=X c #FDE3D5",
"-X c #FFE7D9",
";X c #C5DEE2",
":X c #DEDFE0",
">X c #C6E0E3",
",X c #C9E2E6",
"<X c #CBE5E9",
"1X c #CEE9ED",
"2X c #D3E8EB",
"3X c #D2EDF1",
"4X c #D6F2F6",
"5X c #D8F4F7",
"6X c #D9F6FA",
"7X c #DCF9FD",
"8X c #E4E4E4",
"9X c #E8E7E7",
"0X c #ECECED",
"qX c #EEEFF0",
"wX c #EEF6F6",
"eX c #E1FEFF",
"rX c #F4F4F4",
"tX c #F9F5F6",
"yX c #FFFFFF",
/* pixels */
"7X7X7X7X7X6X7X7X7X7X7X7X7X7X7X7X7X7X6X7X7X7X7X7X7X7X7X7X7X7X7X7X7X7X7X7XeX7X7X7X7X7X7X7X7X7X7X7X7X7X7X7X7X7X7X7X7X7X7X7X7X7X6X7X",
"7X7X7X7X7X7X7X7X7X7X7X7X7X7X7X7X7X7X7X7X7X7X7X7X7X7X7X7X7X7X7X7XeX7X1XXX`.`.[.>X3X7X7X7X7X7X7X7X7X7X7X7X7X7X7X7X7X7X7X7X7X7X7X7X",
"7X7X7X7X7X7X7X7X7X7X7X7X7X7X7X7X7X7X7X7X7X7X7X7X7X7X7X7X7X7X7X1XL.g.c z 9 8 0 z v g.L.3XeX7X7X7X7X7X7X7X7X7X7X7X7X7X7X7X7X7X7X7X",
"7X7X7X7X7X7X7X7X7X7X7X7X7X7X7X6X7X7X7X7X7X7X7X7X7X7X7X7X7X1Xb.l w [ 8.w.9.9.w.*...[ 8 b A.l.L Z.3X7X7X7X7X7X7X7X7X7X7X7X7X7X7X7X",
"7X7X7X7X7X7X7X7X6X7X7X7X7X7X7X7X7X7X7X7X7X7X7X7X7X7X7X6XD.j ' &.$.Y.tXyXQ.9.w.=.$.$.#.( 4 M.}.P j.4X7X7X7X7X7X7X7X7X7X7X7X7X7X7X",
"7X7X7X7X7X7X7X7X7X7X7X7X7X7X7X7X7X7X7X7X7X7X7X7X7X7X,Xg.0 &.*.$.@.9.Y.w.1.$.$.$.@.@.@.^ M.yXyXqXC '.7X7X7X7X7X7X7X7X7X7X7X7X7X7X",
"7X7X7X6X7X7X7X7X7X7X7X7X7X7X7X7X7X7X7X7X7X7X7X7X7X{.b ' *.$.@.@.@.@.@.@.@.@.$.@.@.@.$.~ P.yXyXtXA ).7X7X7X7X7X7X7X7X7X7X7X7X7X7X",
"7X7X7X7X7X7X7X7X7X7X7X7X7X7X7X7X7X7X7X7X7X7X7X7X'.g [ *.#.#.@.@.@.@.@.@.@.@.@.@.@.@.@.~ A 9XtXP.l ,X7X7X7X7X7X7X7X7X7X7X6X7X7X7X",
"7X7X7X7X6X7X7X7X7X7X7X7X7X7X7X7X7X7X7X7X7X7X7X{.j ] #.@.@.@.@.@.@.@.@.@.@.@.@.@.@.@.} 3 H S A M L.7X7X7X7X7X7X7X7X7X6X7X7X7X7X7X",
"7X7X7X7X7X7X7X7X7X7X7X7X7X7X7X7X7X7X7X7X7X7X,XC [ *.$.@.@.@.@.@.@.$.@.@.@.@.@.@.@.@.^ g.6XXX`.<X7X7X7X7X7X7X7X7X7X7X7X7X7X7X7X7X",
"7X7X7X7X7X7X7X7X7X7X7X7X7X7X7X7X7X7X7X7X7X6Xj.' *.@.@.@.@.@.$.@.@.@.@.@.@.@.@.@.@.X.2 `.eX7X7X7X7X7X7X7X7X7X7X7X7X7X7X7X7X7X7X7X",
"7X7X7X7X7X7X7X7X7X7X7X7X7X7X7X6X7X7X7X7X7XF.0 O.$.$.$.$.@.@.+.+.#.@.@.$.$.$.@.@.$.} d 1X7X7X7X7X7X7X7X7X7X7X7X7X7X7X7X7X7X7X7X7X",
"7X7X7X7X7X7X7X7X6X7X7X7X7X7X7X7X7X7X7X7X>Xg %.@.o._ ( ~ 7 8 8 8 9 7 7 ~ ( _ o.@.$.E c 3X7X7X7X7X7X7X7X7X7X7X7X7X7X7X7X7X7X7X7X7X",
"7X7X7X7X7X7X7X7X7X7X7X7X7X7X7X7X7X7X7X7Xl.7 / 8 z F n.J.U. XoXoXoX XU.H.z.F z 7 ( T d 3X7X7X7X7X7X7X7X7X7X7X7X6X7X7X7X7X7X7X7X7X",
"7X7X7X6X7X7X7X7X7X7X7X7X7X7X7X7X7X7X7X'.# s z.|.9XyXyXyXyXyXyXyXyXyXyXyXyXyX9X}.h.p @ '.eX7X7X7X7X7X7X7X7X7X7X7X7X7X7X7X6X7X7X7X",
"7X7X7X7X7X7X7X7X7X7X7X7X7X7X7X7X7X7X[.V n.9XyXyXyXyXyXyXyXyXyXyXyXyXyXyXyXyXyXyXyX:Xz.C XX7X7X7X7X7X7X7X7X7X7X7X7X7X7X7X7X7X7X7X",
"7X7X7X7X7X7X7X7X7X7X7X7X7X7X7X7X7X<XC P.yXyXyXyXyXyXtXrX0X8X:X:X:X8X0XrXtXyXyXyXyXyXyXH.S 3X7X7X7X7X7X7X7X7X7X7X7X7X7X7X7X7X7X7X",
"7X7X7X7X7X7X7X7X7X7X7X7X7X7X7X7XeXF.j.yXyXyXtX8X}.M.k.D C l l b l b C D j.Z.~.2XtXyXyXyXJ ).7X7X7X7X7X7X7X7X7X7X6X7X7X7X7X7X7X7X",
"7X7X7X7X7X7X7X6X7X7X7X7X7X7X7X7X6Xj.n.yXqXU.P l b F u.V.R.W.~.~.~.W.R.V.x.F v m k.}.rXyXl.v.7X7X7X7X7X7X7X7X7X7X7X7X7X7X7X7X7X7X",
"7X7X7X7X7X7X7X7X7X7X7X7X7X7X7X3Xj.k l B.D c x.W.%X=X-X=X=X=X=X=X=X=X=X-X=X=X$XR.u.j J M.k h b.6X7X7X7X7X7X7X7X7X7X7X7X7X7X7X7X7X",
"7X7X6X7X7X7X7X7X7X7X7X7X7X7X7XD.A 9Xz.s N.#X-X=X=X-X=X=X*X=X*X=X=X=X=X=X-X=X=X=X=X^.x.t G.+Xl _.7X7X7X7X7X7X7X7X7X7X7X7X7X6X7X7X",
"7X7X7X7X7X7X7X7X7X7X7X7X7X7X3XS P.tXP u.-X=X=X=X*XR.R.#X=X=X=X=X=X=X=X~.V.~.=X=X=X=X=Xl B.yXm.g.6X7X7X7X7X7X7X7X7X7X7X7X7X7X7X7X",
"7X7X7X7X7X7X7X7X7X7X7X7X7XeXS.D 0Xc.# u.=X=X=X&Xy.b m F ^.-X*X=X=X=XR.v m b V.=X=X=X&Xm t _.8XM (.7X7X7X7X7X7X7X7X7X7X7X7X7X7X7X",
"7X7X7X7X7X7X7X7X7X7X7X7X7X5XS I.9Xm F u.=X=X=X~.B.$X*XK.K.=X=X=X=X&XN.~.=X~.N.$X=X=X*XF 5.K yXM.j.7X7X7X7X7X7X7X7X7X7X7X7X7X7X7X",
"7X7X7X7X7X7X7X7X7X6X7X7X7X3XV .XOXZ u.y.=X=X=X$X&X=X=X=X$X=X-X=X=X=X$X=X=X=X$X*X=X=X%XZ N.G tXI.H 7X7X7X7X7X7X7X7X7X7X7X7X7X7X7X",
"7X7X7X7X7X7X7X7X7X7X7X7X7X6XS P.qXF F F =X=X=X=X%X@X%X=X$XV.x.u.x.R.%X*X%X@X*X=X=X=X#Xm B n.yXm.L c.j.).7X<XZ.H _.7X7X7X7X7X7X7X",
"7X7X7X7X7X7X7X7X7X7X7X7X7X7XF.C 8X}.a f $X=X=X%X^.Q.@XV.m K M.J.M.G Z R.^.Q.^.&X=X=X~.# Z 9XoXM F.s & 9 j.c ~ = Z.eX7X7X7X7X7X7X",
"7X7X7X7X7X7X7X7X7X7X7X7X7X7X7XH z.yX+XZ R.R.G Z m F 5.Z  XyXyXyXyXtXU.m 5.F Z m 5.W.N.J rXtXJ g.L.S : & O $ % # b.[.7X7X7X7X7X7X",
"6X7X7X7X7X7X7X7X7X7X7X7X7X7X6XH H.yXyXP.a Z P.+X:XE.c.8XyXyXyXyXyXyXyXoXx.|.8X+XH.b a  XyXyXn.k a 4.n y 7 ' n n x H 7X7X7X7X7X7X",
"7X7X7X7X7X7X7X7X7X7X6X7X7X7X4XS E.yXyXqXG.8XyXyXyXyXyXyXtXtXyXyXyXtXyXyXyXyXyXyXyXOXH.tXyXyXJ.a x d.d.q.%.,.d.d.t.S 6X7X7X7X7X7X",
"7X7X7X7X7X7X7X7X7X7X7X7X7X7X7Xg.C.yXyXyXyXyXyXyXyXyXyXyX}.H.yXyXtXl.9XyXyXyXyXyXyXyXyXyXyXyXk.S # u u x 6 9 u y 4 L 7X7X7X7X7X7X",
"7X7X7X7X7X7X6X7X7X7X7X7X7X7X7X_.l  XyXyXyXyXyXyXyXyXyXyX+XA G.E.l.u.tXyXyXyXyXyXyXyXyXyXyXP.l `.A s.i.T.O.0.f.i.4.S.7X7X7X7X7X7X",
"7X7X7X7X7X7X7X7X6X7X7X7X7X7X7X7XF.V k.P.tXyXyXyXyXyXyXyXyXOXm.l.G.qXyXyXyXyXyXyXyXyXrXH.P N ).3XA s.p.!.*.0.!.p.y.A.7X7X7X7X7X7X",
"7X7X7X7X7X7X7X7X7X7X7X7X7X7X7X7X7X>XS.l +XyXyXyXyXyXyXyXyXyXyXyXyXyXyXyXyXyXyXyXyXyX}.l F.<X7X3XA s.p.!.$.0.!.p.y.S.7X7X7X7X7X7X",
"7X7X7X7X7X6X7X7X7X7X7X7X7X7X7X7X7X7X7Xv.k.tXyXyXyXyXyXyXyXyXyXyXyXyXyXyXyXyXyXyXyX0XD D.eX7X7X3Xm s.i.T.O.0.f.i.t.S.6X7X7X7X7X7X",
"7X7X7X7X7X7X7X7X7X7X7X7X7X7X7X7X7X7X7X<Xh P oX0XqX8XqXtXyXyXyXyXyXyXyXrX0X8XrX0X.XD S 4X3X;X_.b.a f 0 p 6 6 y t t /.7X7X7X7X7X7X",
"7X7X7X7X7X7X7X7X7X7X7X7X7X7X7X7X7X7X7X{.s w p N Z j N P  XtXyXyXyXrX}.J b j Z b 5 % s H N z w 6 G J.6 ..o.o.U g.>X4X7X7X7X7X7X7X",
"7X7X6X7X7X7X7X7X7X7X7X7X7X7X7X7X7X7X7Xv.<.=.o.E )  .E ~ p P G.P.M.J 5 ^ _  .) _ X.} $ ~ ..#.#...v OX0 E ../ 5 _.7X7X7X7X7X7X7X7X",
"7X7X7X7X7X7X7X7X7X7X7X7X7X7X7X7X7X7X`.h 8.$.@.$.$.$.@.@.../ < 7 7 ( o.$.$.$.@.$.@.+.& ^ $.#.@.E 3 n.a d z H _.7X7X7X7X7X7X7X7X7X",
"7X7X7X7X7X7X6X7X7X7X7X7X7X7X7XeX;Xj.5 3 8.@.@.@.@.@.@.@.$.@.3.h.] $.@.@.@.@.@.@.@.+.Y , E ^ , s D H S.1X3X7X7X7X7X7X7X7X7X7X7X7X",
"7X7X7X7X7X7X7X7X7X7X7X7X7X7X).g.g ' ] 9 1.@.@.@.@.@.@.@.@.o.B.tX2.@.@.@.@.@.@.#.$.@.R 1 g j./.<X7X7X7X7X7X7X6X7X7X7X7X7X7X7X7X7X",
"7X7X7X7X6X7X7X7X7X7X4XL.b.j.l P 6 @. .9 1.@.@.@.@.@.@.@.@.#.{ 6.] $.@.@.@.@.@.@.@.@.T s ,XeXeX7X7X7X7X7X7X7X7X7X7X7X7X7X7X7X7X7X",
"7X7X7X7X7X7X7X7X7X7Xl.8 ' ` d +XZ ) U 0 1.@.@.@.@.@.$.@.@.+.3.5.] @.@.@.@.@.@.@.@.@.T j 3X7X7X7X7X7X7X7X7X7X7X7X7X7X7X7X7X7X7X7X",
"7X7X7X7X7X7X7X7X7X7XH / $.$.~ m.B.@ l p 1.@.@.@.@.@.@.@.@.o.B.wX2.@.@.@.@.@.#.@.@.#.I C 5X7X7X7X7X7X7X7X7X7X7X7X7X7X7X7X7X7X7X7X",
"7X7X7X7X7X7X7X7X7X6XH ( $.@.^ # l Z.3XN 8.#.#.$.@.@.@.@.@.@.{ 6.] @.@.@.@.@.@.@.@.+.& j.eX7X7X7X7X7X7X7X7X7X7X7X7X7X7X7X7X6X7X7X",
"7X7X7X7X7X7X7X7X7X6Xb I  .U j (.XX7X7Xj.<.=.@.$.@.@.@.@.@.@.3.5.] @.@.@.@.@.@.@.@.| , /.7X7X7X7X7X7X7X7X7X7X7X7X7X7X7X7X7X7X7X7X",
"7X7X7X7X7X7X7X7X7X7X(.C c l.;X7X7X7X7X_.p 1.@.@.+.@.@.@.$.o.N.wX2.+.@.@.@.@.@.@.@.T d 1X7X7X7X7X7X6X7X7X7X7X7X7X7X6X7X7X7X7X7X7X",
"7X7X7X7X7X7X6X7X7X7X7X6X6X7X7X7X7X7X7X5XH <. .o.+.+.@.@.@.+.3.7.&.@.@.@.#.+.O.o.) > Z.7X7X7X7X7X7X7X7X7X7X7X7X7X7X7X7X7X7X7X7X7X",
"7X7X6X7X7X7X7X7X6X7X7X7X7X7X7X7X7X7X7X7X[.# o + : $ > , & ;.;.;.r.-., , , : : + o M 3X7X7X5X7X7X7X7X7X7X7X7X7X7X7X7X7X7X7X7X7X7X",
"7X7X7X7X7X7X7X7X7X7X7X7X7X7X7X7X7X7X7X7X7XS.@ 1 : : . O X e.e e r -.o O O X $   i ].7X7X7X7X7X7X7X7X7X7X7X7X7X7X7X7X7X7X7X7X7X7X",
"7X7X7X7X7X7X7X7X7X7X7X7X7X7X7X7X7X7X7X7X7X6Xv.0 &.O.o... .,.>.>.>.,.....o.O.Y 5 /.7X7X7X7X7X7X7X7X7X7X7X7X7X7X6X7X7X7X6X7X7X7X7X",
"7X7X7X7X7X7X7X7X7X7X7X7X7X7X7X7X7X7X7X7X7X7X7XL 1 [ *.$.$.@.@.@.+.O.$.$.o.< + S.7X7X7X7X7X7X7X7X7X7X7X7X7X7X7X7X7X7X7X7X7X7X7X7X",
"7X7X7X7X6X7X7X7X7X7X7X7X6X7X7X7X7X7X7X7X7X7X7X).3 6 6 ^ ..O.+.#.O.O. .` $ 7 s ,X7X7X7X7X7X7X7X7X7X7X7X7X7X7X7X7X7X7X7X7X7X7X6X7X",
"7X7X7X7X7X7X7X7X7X7X7X7X7X7X7X7X7X7X7X7X7X7X7X<Xc %. .& 1 0 9 9 0 3 : Y o.[ L 7X7X7X7X7X7X7X7X7X7X7X7X7X7X7X7X7X7X7X7X7X7X7X7X7X",
"7X7X7X7X7X7X7X7X7X7X7X7X7X7X7X7X7X7X7X7X7X7X7X7Xj.[ +...5  XOXoX:XJ.6 +.*.q L.eX7X7X7X7X7X7X7X7X7X6X7X7X7X7X7X7X7X7X7X7X7X7X7X7X",
"7X7X7X7X7X7X7X7X7X7X7X7X7X7X7X7X7X7X7X7X7X7X7XeXS.1 > $ 4 9XyXyXyXU.X = $ 4 {.eX7X7X7X7X7X7X7X7X7X7X7X7X7X7X7X7X7X6X7X7X7X7X7X7X",
"7X7X7X7X7X7X7X7X6X7X7X7X7X7X7X7X7X7X7X7X7X7X3X`.b.* W Q 5 :XyXyXyXP.= Q ; t F.{.5X7X7X7X7X7X7X7X7X7X7X6X7X7X7X7X7X7X7X7X7X7X7X7X",
"7X7X7X7X7X7X7X7X7X7X7X7X7X7X7X7X7X7X7X7X7X[.V d 3 * Q Q 3 :XyXyXyXP.- ! W X t f L 2X7X7X7X7X7X7X7X7X7X7X7X7X7X7X7X7X7X7X7X7X7X7X",
"7X7X7X7X7X7X7X7X7X7X7X7X7X7X7X7X7X7X7X7X5XA ; a.-.Q -.Q t +XyXyXyXP.- ! ! Q :.7.= b.7X7X7X7X7X7X7X7X7X7X7X7X7X7X7X7X7X7X7X7X6X7X",
"7X7X7X7X6X7X7X7X7X7X7X7X7X7X7X7X7X7X7X4X[.t W Q Q Q W Q 1 P z.l.z.C = Q W Q Q ! ; A <X7X7X7X7X7X7X7X7X7X7X7X7X7X7X7X7X7X7X7X7X7X",
"7X7X7X7X7X7X7X7X7X7X7X7X6X7X7X7X7X7X{.j.V # . X X X . X + h h h h a . X . X X X . a S v.1X7X7X7X7X7X7X7X7X6X7X7X7X7X7X7X7X7X7X7X",
"7X7X7X7X7X7X7X7X7X7X7X7X7X7X7X7X7X7X1X).Z.l.H A l l h h h l l M V l h h h l V A L v.S.`.5X7X7X7X7X7X7X7X7X7X7X7X7X7X7X7X7X7X7X7X",
"7X7X7X7X7X7X7X7X7X7X7X7X7X7X7X7X7X7X7X7X7X7X6X3X<X,XXX{.{.[.].[.`.[.{.XXXX,X<X4X6X7X7X7X7X7X7X7X7X7X7X7X7X7X7X7X7X7X6X7X7X7X7X7X",
"6X7X7X7X7X7X7X7X6X7X7X7X7X7X7X7X7X7X7X7X7X7X7X7X7X7X7X7X7X7X7X7X7X7X7XeX7X7X7X7X7X7X7X7X7X7X7X7X6X7X7X7X7X7X7X7X7X7X7X7X7X7X7X7X"
};
