/* XPM */
static char *result[] = {
/* columns rows colors chars-per-pixel */
"64 64 199 2 ",
"   c #020202",
".  c #0C0401",
"X  c #050D02",
"o  c #0D0A05",
"O  c #020709",
"+  c #040B0C",
"@  c #0B0D0D",
"#  c #110402",
"$  c #1B0200",
"%  c #130B05",
"&  c #1A0E03",
"*  c #140E09",
"=  c #180F09",
"-  c #071401",
";  c #0C1207",
":  c #091B01",
">  c #1B1508",
",  c #040E13",
"<  c #0B1113",
"1  c #01161D",
"2  c #07171D",
"3  c #111212",
"4  c #161A1C",
"5  c #191D1E",
"6  c #260100",
"7  c #2D0100",
"8  c #310300",
"9  c #3D0400",
"0  c #241400",
"q  c #281909",
"w  c #321C07",
"e  c #2F1D11",
"r  c #0D2402",
"t  c #192709",
"y  c #133505",
"u  c #143805",
"i  c #3D2803",
"p  c #24350D",
"a  c #3B2413",
"s  c #382414",
"d  c #283E11",
"f  c #031D27",
"g  c #1D2223",
"h  c #102028",
"j  c #062C38",
"k  c #152C37",
"l  c #232829",
"z  c #242B2C",
"x  c #282F32",
"c  c #2B3134",
"v  c #2C3537",
"b  c #333B3D",
"n  c #4A0500",
"m  c #550700",
"M  c #6B0900",
"N  c #780A00",
"B  c #4B2A00",
"V  c #512D00",
"C  c #583502",
"Z  c #482C18",
"A  c #4D311B",
"S  c #56351D",
"D  c #683B00",
"F  c #5D3A20",
"G  c #623D22",
"H  c #1D4B09",
"J  c #1F500A",
"K  c #22570B",
"L  c #304613",
"P  c #395416",
"I  c #296B0E",
"U  c #2D740F",
"Y  c #2F7810",
"T  c #317F10",
"R  c #6D4F0E",
"E  c #774300",
"W  c #4A6C1D",
"Q  c #4E731F",
"!  c #6B4224",
"~  c #784B29",
"^  c #4E7420",
"/  c #557C23",
"(  c #083644",
")  c #073847",
"_  c #133849",
"`  c #353F41",
"'  c #0A4356",
"]  c #3B4546",
"[  c #214659",
"{  c #0D5369",
"}  c #27536A",
"|  c #2E627C",
" . c #41494A",
".. c #485356",
"X. c #4D5A5C",
"o. c #525E61",
"O. c #546365",
"+. c #556668",
"@. c #5D6B6D",
"#. c #5E6F72",
"$. c #606F72",
"%. c #657578",
"&. c #6B7B7E",
"*. c #850C00",
"=. c #8E0D00",
"-. c #930E00",
";. c #9C0F00",
":. c #A30F00",
">. c #AC1000",
",. c #B71100",
"<. c #BD1200",
"1. c #C41300",
"2. c #C91300",
"3. c #D31400",
"4. c #DA1500",
"5. c #8A4E00",
"6. c #995600",
"7. c #A25C00",
"8. c #967014",
"9. c #A96101",
"0. c #BA6900",
"q. c #A47B16",
"w. c #804F2B",
"e. c #86532E",
"r. c #8C5730",
"t. c #935C33",
"y. c #995F35",
"u. c #9D6236",
"i. c #A36538",
"p. c #AC6B3B",
"a. c #B16E3D",
"s. c #B6713F",
"d. c #B8723F",
"f. c #C97200",
"g. c #D77A00",
"h. c #BD7541",
"j. c #C07742",
"k. c #C57A44",
"l. c #CA7E45",
"z. c #338211",
"x. c #368C12",
"c. c #5B8425",
"v. c #67982A",
"b. c #78B031",
"n. c #81BD35",
"m. c #E88400",
"M. c #F38A00",
"N. c #FC8F00",
"B. c #FE9100",
"V. c #FE970E",
"C. c #D8A21E",
"Z. c #F5B224",
"A. c #87C537",
"S. c #FFC324",
"D. c #ECC277",
"F. c #12708D",
"G. c #336E8B",
"H. c #3C7FA0",
"J. c #6E7F81",
"K. c #1683A4",
"L. c #1789AD",
"P. c #178CB1",
"I. c #6E8183",
"U. c #75888B",
"Y. c #7C8F92",
"T. c #7E9194",
"R. c #428DB2",
"E. c #4390B5",
"W. c #4CA3CC",
"Q. c #4FA8D3",
"!. c #50AAD6",
"~. c #819598",
"^. c #84999C",
"/. c #889EA2",
"(. c #8BA2A4",
"). c #92A9AD",
"_. c #97AFB2",
"`. c #9BB4B7",
"'. c #A1BABD",
"]. c #DCDBBD",
"[. c #A4BEC1",
"{. c #A8C3C6",
"}. c #AFCBCE",
"|. c #B0CCCF",
" X c #B1CDD1",
".X c #B7D4D7",
"XX c #BCDADE",
"oX c #BFDDE0",
"OX c #C1DFE3",
"+X c #C3E1E5",
"@X c #C5E5E9",
"#X c #CAEAEE",
"$X c #CEEEF2",
"%X c #CFF0F4",
"&X c #D1F2F6",
"*X c #D4F6FA",
"=X c #D6F8FC",
"-X c #D9FBFF",
";X c #E0F7EE",
/* pixels */
"=X=X=X=X=X=X=X=X=X=X=X=X=X=X=X=X=X=X=X=X=X=X=X=X=X=X=X=X=X=X=X=X=X=X=X=X=X=X=X=X=X=X=X=X=X=X=X=X=X=X=X=X=X=X=X=X=X=X=X=X=X=X=X=X",
"=X=X=X=X=X=X=X=X=X=X=X=X=X=X=X=X=X=X=X=X=X=X=X=X=X=X=X=X=X=X=X=X=X=X=X*X=X=X=X=X=X=X=X=X=X=X=X=X=X=X=X=X=X=X=X=X=X=X=X=X=X=X=X=X",
"=X=X=X=X=X=X=X=X=X=X=X=X=X=X=X=X=X=X=X=X=X=X=X=X=X=X=X=X=X=X=X=X=X=X=X=X=X=X=X=X=X=X=X=X=X=X=X=X=X=X=X=X=X=X=X=X=X=X=X=X=X=X=X=X",
"=X=X=X=X=X=X=X=X=X=X=X=X=X=X=X=X=X=X=X=X=X=X*X=X=X=X=X=X=X=X=X=X=X=X=X=X=X=X=X=X=X=X=X=X=X-X=X=X=X=X=X=X=X=X=X=X=X=X=X=X=X=X=X=X",
"=X=X=X=X=X=X=X=X=X=X=X=X=X=X=X=X=X=X=X=X=X=X=X=X=X=X=X=X=X=X=X=X=X=X*X=X=X=X=X=X=X=X=X=X+X{.@X-X-X=X-X=X=X=X=X=X=X=X=X=X=X=X=X=X",
"=X=X=X=X=X=X=X=X=X=X=X=X=X=X=X=X=X=X=X=X=X=X=X=X=X=X=X=X=X*X=X=X=X=X=X=X=X=X=X=X=X=X=X*XO.X z %.{.%X-X-X=X=X=X=X=X=X=X=X=X=X=X=X",
"=X=X=X=X=X=X=X=X=X=X=X=X=X=X=X=X=X=X=X=X=X=X=X=X=X=X=X=X=X=X=X=X=X=X=X=X=X=X=X=X=X=X=X&Xb i R 0 ; ] U. X&X=X=X=X=X=X=X=X=X=X=X=X",
"=X=X=X=X=X=X=X=X=X=X=X=X=X=X=X=X*X=X=X=X=X=X=X=X=X=X=X=X=X=X=X=X=X=X=X=X=X=X=X=X=X=X-X#Xc R S.C.q.C ; 3 ~.-X=X=X=X=X=X=X=X=X=X=X",
"=X=X=X=X=X=X=X=X=X=X=X=X=X=X=X=X=X=X=X=X=X=X=X=X=X=X=X=X=X=X=X=X=X=X=X=X=X=X=X=X=X=X-X@Xg 8.S.S.S.S.8.  &.-X=X=X=X=X=X=X=X=X=X=X",
"=X=X=X*X=X=X=X=X=X=X=X=X*X=X=X=X=X=X=X=X=X=X=X=X=X=X=X=X=X=X=X=X=X=X=X=X=X=X=X-X#X{.~.#.+ R C.C.S.Z.B b OX=X=X=X=X=X=X=X=X=X=X=X",
"=X=X=X=X=X=X=X=X=X=X=X=X=X=X=X=X=X=X=X=X=X=X=X=X=X=X=X=X=X=X=X=X=X=X=X=X=X-X@XU.v * & 0 &   o B 8.R 3 [.-X=X-X=X*X=X=X=X=X=X=X=X",
"=X=X=X=X=X=X=X=X=X=X=X=X=X=X=X=X=X=X=X=X=X=X=X=X=X=X=X=X=X=X=X=X=X=X=X=X-X{.b # C 9.g.f.w 0 E 0     @.-X-X-X-X-X-X-X=X=X=X=X=X=X",
"=X=X=X=X=X=X=X=X=X=X=X=X=X=X=X=X=X=X=X=X=X=X=X=X=X=X=X=X=X=X=X=X=X=X=X-X'.5 w f.N.B.N.C 0 f.B.E o 0 z '.{.T.I.J.I.U.}.=X=X=X=X=X",
"=X=X=X=X=X=X=X=X*X=X=X=X=X=X=X=X=X=X=X=X=X=X=X=X=X=X=X=X=X=X=X=X=X=X-X.Xg B g.B.B.B.9.# 6.B.B.6.0 0.0 < 3 % = > = o g {.-X=X=X=X",
"=X=X=X=X=X=X=X=X=X=X=X=X=X=X=X=X=X=X=X=X=X=X*X=X&X#X&X-X=X=X=X=X=X=X#Xo.0 g.B.N.B.M.i V M.B.B.5.0 5.& e w.p.a.h.h.i.0 @.=X=X=X=X",
"=X=X=X=X=X=X=X=X=X=X=X=X=X=X=X=X=X=X=X=X=X=X*X).] z ] `.=X=X=X=X$X~.v   w f.N.N.B.0.& 9.B.B.B.D o # A d.l.h.p.a.p.u.& @.-X=X=X=X",
"=X=X*X=X=X=X=X=X=X=X=X=X=X*X=X=X=X=X=X=X=X=X/.@ ` $.v 3 _.-X=X=X&.@  .R 0 w g.B.B.m.0.M.N.N.m.B   s s.k.~ e * > = % l {.-X=X=X=X",
"=X=X=X=X=X=X=X=X=X=X=X=X=X=X=X=X=X=X=X=X=X#Xx  .#X-X+Xb c @X-X'.@ %.].V.g.0 E B.N.B.B.N.N.N.g.% * u.l.~ . n N m @ J..X=X=X=X=X=X",
"=X=X=X=X=X=X=X=X=X=X=X=X=X=X=X=X=X=X=X=X-XXX4 Y.-X=X-X'.; I.%X] x +XD.N.N.B V N.N.N.N.N.N.B.6.o ~ l.u.* m 3.4.-.3  X-X=X=X=X=X=X",
"=X=X=X=X=X=X=X=X=X=X=X=X=X=X=X=X=X=X=X=X-X#Xx X.*X-X-X-X@.5 @.* ).;XZ.B.g.w D B.B.N.N.N.N.g.0 Z d.d.s 7 <.3.3.=.@ }.-X=X=X=X=X=X",
"=X=X=X=X=X=X=X=X=X=X=X=X=X=X=X=X=X=X=X=X{.^.b o O.^.^.(.U.@   x /.~.9.6.B   D 9.g.B.N.B.M.V > p.l.G # ;.4.3.4.=.3 }.-X=X=X=X=X=X",
"=X*X=X=X=X=X=X=X=X=X=X=X=X=X=X=X=X=X=X+Xz O < < , , O   o X   + .   @ 3 , 3 3 O D B.N.N.5.% r.l.r.o M 3.3.3.3.=.* }.-X=X=X=X=X=X",
"=X=X=X=X=X=X=X=X=X=X=X=X=X=X=X=X=X=X-XXX4 } E.R.R.E.[ - I U I U K   G.R.R.R.R._ V N.B.0.% S k.p.q 9 1.3.3.3.3.=.3 }.-X=X=X=X=X=X",
"=X=X=X=X=X=X=X=X=X=X=X=X=X=X=X=X=X=X=XXX5 G.!.Q.Q.!.} : z.x.x.x.I @ H.Q.Q.Q.W._ B N.g.i e h.j.A $ >.3.3.3.3.4.=.3 }.-X=X=X=X=X=X",
"=X=X=X=X=X=X=X=X=X=X=X=X=X=X=X=X=X=X-XXX5 | W.W.W.W.} : T x.x.x.I O H.W.W.W.W._ B M.D % y.l.~ . *.3.3.3.3.3.4.=.3 }.-X=X=X=X=X=X",
"=X=X=X=X=X=X=X=X=X=X=X=X=X=X=X=X=X=X-XXXg 2 k k k k 2   : r : t :   h k k k k , C 7.% ~ l.u.= m 2.3.3.3.3.3.3.=.@ }.=X=X=X=X=X=X",
"=X=X=X=X=X=X=X=X=X=X=X=X=X=X=X=X=X=X=X&X^.x O ( ( ( ( j   p P t , ( ( ( ( f   V 6.0 Z h.h.s 6 <.3.3.3.3.3.3.4.=.3 }.=X=X=X=X=X=X",
"=X=X=X=X=X=X=X=X=X=X*X=X=X-X-X-X=X=X=X=X-X&.1 L.P.P.P.F., c.A.P f L.L.L.P.F.o 0.C > p.l.G # ;.3.3.3.3.3.3.3.3.=.3 }.-X=X=X=X=X=X",
"=X=X=X=X=X*X=X=X=X=X-X&XXX}. X@X=X-X=X=X-X&.1 F.P.P.P.F., c.A.P f K.P.P.P.F.. B % e.l.r.# M 3.3.3.3.3.3.3.3.3.=.3 }.-X=X=X=X=X=X",
"=X=X=X=X=X=X=X=X*X*X_. .4 3 3 l %..X-X*X-X&.1 K.P.P.P.F.+ L P : , j ( j ( j     G k.a.q 9 1.3.3.3.3.3.3.3.3.4.=.3 }.-X=X=X=X=X=X",
"=X=X=X=X=X=X=X=X$X%.@ w ! e.w.S % l '.=X-X&.2 K.P.P.K.' O & e a s s a a a a Z w.h.h.A $ >.3.3.3.3.3.3.3.3.3.4.=.@ }.-X=X=X=X=X=X",
"=X=X=X=X=X=X=X=X&.o G j.l.l.l.l.i.e l }.-X&.1 K.P.K.( % G i.h.k.k.k.k.k.k.k.l.l.h.S . *.3.3.3.3.2.3.3.3.3.3.3.=.3 }.=X=X=X=X=X=X",
"=X=X=X=X=X=X-X{.3 F k.h.~ A S y.l.p.= X.=XJ.1 K.L.{ # ~ l.k.i.t.t.t.t.t.t.t.r.! q # N 3.3.3.3.3.3.3.3.3.3.3.3.=.<  X-X=X=X=X=X=X",
"=X=X=X=X=X=X-X$.> a.j.A     $ = t.l.! 3 .XJ.1 K.F.1 S l.h.Z * # # # # # # % # $ m :.3.3.3.3.3.3.3.3.3.3.3.3.4.=.3 }.-X=X=X=X=X=X",
"=X=X=X=X=X=X&X] Z l.t.* v $ :.8 Z j.i.o ).J.1 K.{ 3 y.k.Z # N :.:.:.:.:.:.:.>.<.2.3.3.3.3.3.3.2.3.3.3.3.3.3.3.=.3 }.=X=X=X=X=X=X",
"=X=X=X=X=X=X$Xz S l.~ 5 &.$ 1.M > h.p.% /.J.1 K.' q h.p.* N 4.3.3.4.3.3.3.3.3.3.3.3.3.3.3.3.3.3.2.3.3.3.3.3.4.=.* }.-X=X=X=X=X=X",
"=X=X=X=X=X=X$Xb a s.S l J.$ <.N > h.h.. ~.J.1 K.) e h.i.% -.3.3.3.3.3.3.3.3.3.3.3.3.3.3.3.3.3.3.3.3.3.3.3.3.4.=.< }.-X=X=X=X=X=X",
"=X=X=X=X=X=X-X^.@ & o %.T.$ <.M > h.p.@ /.J.1 K.' e h.i.% -.3.3.3.3.2.3.3.3.3.3.3.2.3.3.3.3.3.2.3.3.3.3.2.3.3.=.* |.-X=X=X=X=X=X",
"=X=X=X=X=X=X=X*X_.&./.&X~.$ 1.M = h.p.* /.J.1 K.) e h.i.% -.3.3.3.3.3.3.3.3.3.3.3.3.3.3.3.3.3.3.3.3.3.3.3.3.3.*.4 oX=X=X=X=X=X=X",
"=X=X=X=X=X=X=X-X-X-X-X-X~.$ <.N q s.a.* ~.J.1 L.) e k.u.% -.4.3.3.3.3.3.3.3.3.3.3.3.3.3.3.3.3.3.3.3.3.3.3.3.3.m x #X=X=X=X=X=X=X",
"=X=X=X=X=X=X=X=X=X=X=X-X~.$ <.*.# i.h.e ] @.2 F.1 A l.r.# :.3.3.3.3.3.3.3.3.3.3.3.3.2.3.3.3.3.3.3.3.3.3.3.3.2.7 X.=X=X=X=X=X=X=X",
"=X=X=X=X=X=X=X=X=X=X=X-X~.$ 1.>.$ ~ l.~ 3 , O 1 > i.l.S 6 1.3.3.3.3.3.3.3.3.3.3.3.3.3.3.3.3.3.3.2.3.3.3.3.3.:.o (.-X=X=X=X=X=X=X",
"=X=X=X=X=X=X=X=X=X=X-X-XT.$ <.2.n e h.h.r.a q Z u.k.u.* M 3.3.3.3.3.3.3.3.3.3.3.3.3.3.3.3.3.3.3.3.3.3.3.3.3.m z OX=X=X=X=X=X=X=X",
"=X=X=X=X=X=X=X=X=X=X-X-X~.$ <.3.:.$ s h.l.k.h.l.l.u.q 8 <.3.3.3.3.3.2.3.3.3.3.2.3.3.3.3.3.3.3.3.3.3.3.3.3.;.. U.-X=X=X=X=X=X=X=X",
"=X=X=X=X=X=X=X=X-X*X+X+X/.# >.3.3.-.$ > ! y.i.t.F * 7 >.3.3.3.3.3.3.3.3.3.3.3.3.3.3.3.3.2.3.3.3.3.3.3.3.,.6 ] @X=X=X=X=X=X=X=X=X",
"=X=X=X=X=X=X-X$X(...g g J.4 N 3.3.4.>.m $ % % . $ M <.3.3.3.3.3.3.3.3.3.3.3.3.3.3.3.3.3.3.3.3.3.3.3.3.<.9 4 {.-X=X=X=X=X=X=X=X=X",
"=X=X=X=X=X-XXXX.o r u   &...6 <.3.3.3.3.,.;.-.;.<.3.3.3.3.3.3.3.3.3.3.3.3.3.3.3.3.3.3.3.3.3.3.3.3.3.>.9 4 `.-X=X-X-X-X-X=X=X=X=X",
"=X=X=X=X=X+X] X K z.U X J.{.4 n 1.4.3.3.3.4.4.3.3.3.3.3.3.3.3.3.3.3.3.3.3.3.3.3.3.3.3.3.3.3.3.3.1.N $ l `.-X=XoXU.&.I..X=X=X=X=X",
"=X=X=X=X*X#.X I U y X 3 ).-X(.3 7 =.<.2.2.2.2.2.2.2.2.2.2.2.2.2.2.2.2.2.2.2.2.2.2.2.2.2.1.,.;.M 6 @ O..X-X=X-XU.  -   @.=X=X=X=X",
"=X=X=X=X X3 H Y : g Y. X&X=X-X'.] @ $ 7 7 7 8 8 7 7 7 7 7 7 7 8 8 7 8 7 7 7 7 8 7 7 7 8 7 $ . @ o.[.*X=X=X=X-X&.- U r o.-X=X=X=X",
"=X=X=X-XY.X U H 4 [.-X-X=X=X=X-X$X'.O.  d P : g O.+.+.O.+.+...@ p P t < o.+.O.O.+.+.X.< t ^ d l +X-X=X=X=X=X-X&.- T r o.=X=X=X=X",
"=X=X=X-XO.: T r X.=X=X=X=X=X=X=X=X-X%.; b.v.; U.-X-X-X=X-X-XoX5 / A.P c $X=X-X-X-X-X-Xo.t b.v.X ^.-X=X=X=X=X-XJ.- T r O.=X=X=X=X",
"=X=X=X=XX.r z.- %.-X=X=X=X=X=X=X=X+Xl P n.W 4 .X=X=X=X=X=X-XXX5 Q A.P x #X-X=X=X=X=X-X`.+ c.n.p ] %X=X=X=X=X=X%.- T r o.=X=X=X=X",
"=X=X=X-X@.- z.r  .&X=X=X=X=X=X=X-X/.o v.b.t o.=X=X=X=X-X=X=XXX5 Q A.P x #X=X=X=X=X=X=X$Xb d n./ @ {.-X=X=X=X*X .r z.- @.-X=X=X=X",
"=X=X=X-X^.X I K @ ^.=X-X-X-X-X-X%X] p n.c.@ `.-X-X-X-X-X-X-XOX5 ^ A.P c $X-X-X-X-X-X-X-X~.; v.b.: @.-X-X-X*X^.@ K U X /.-X=X=X=X",
"=X=X=X=XXXl y z.u @ X.~.^.^.^.^.J.@ L / p 4 U./.^.^.^.^.^.^.U.3 L / p 4 ~.^.^.^.^.^.^.^.J.@ L / p 4 Y.^.~.X.@ y z.y l XX=X=X=X=X",
"=X=X=X=X-XY.. K z.J : X X X X X X X - X X X X X X X X X X X X - - - X o X X X X X X X X - X X X - X X o X : K z.J X ~.*X*X=X=X=X",
"=X=X=X=X=X&X@.O u U T T T Y Y Y Y Y Y Y Y Y Y Y Y Y Y Y Y Y Y Y Y T Y Y Y Y Y Y Y Y Y Y Y Y Y Y Y Y U T T T U u O $.*X=X=X=X=X=X",
"=X=X=X=X=X=X%XU.5 X r u u u u u u u u u u u u u u u u u u u u u u u u y u u u u u u u u u u u u u u y u y r X 4 U.&X=X=X=X=X=X=X",
"=X=X=X=X=X=X=X=X.XU...v x c c x c v x x c c c c c c c c c x c x c c c c c c c c c c c c c c c c c c x x b ..U..X=X=X=X=X=X=X=X=X",
"=X=X=X=X=X=X=X=X=X-X=X$X$X$X$X$X%X$X$X%X$X%X$X%X$X%X$X$X%X$X$X%X$X%X$X%X$X%X$X$X$X%X$X%X$X$X$X$X$X$X$X$X&X*X-X-X=X=X=X=X=X=X=X=X",
"=X=X=X=X=X=X=X=X=X=X=X=X-X=X-X=X=X=X=X=X=X=X=X=X=X=X=X=X=X=X=X=X=X=X=X=X=X=X=X=X=X=X=X=X=X=X=X=X=X=X=X-X=X=X*X=X=X=X=X=X=X=X=X=X",
"=X=X=X=X=X=X=X=X=X=X=X=X=X=X=X=X=X=X=X=X=X=X=X=X=X=X=X=X=X=X=X=X=X=X=X=X=X=X=X=X=X=X=X=X=X=X=X=X=X=X=X=X=X=X=X=X=X=X=X=X=X=X=X*X",
"=X=X=X=X=X=X=X=X=X=X=X=X=X=X=X=X=X=X=X=X=X=X=X=X=X=X=X=X=X=X=X=X=X=X=X=X=X=X=X=X=X=X=X=X=X=X=X=X=X=X=X=X=X=X=X=X=X=X=X=X=X=X=X=X"
};
