/* XPM */
static char *result[] = {
/* columns rows colors chars-per-pixel */
"64 64 117 2 ",
"   c #010101",
".  c #0B0202",
"X  c #080807",
"o  c #070809",
"O  c #0B0C0C",
"+  c #170606",
"@  c #1B0606",
"#  c #100F0F",
"$  c #1C0808",
"%  c #10100F",
"&  c #0E1011",
"*  c #131313",
"=  c #171B1B",
"-  c #1A1C1C",
";  c #270B0B",
":  c #2C0C0C",
">  c #340F0F",
",  c #3A1111",
"<  c #1B1F20",
"1  c #1D2223",
"2  c #252626",
"3  c #252B2C",
"4  c #2C2C2C",
"5  c #292F30",
"6  c #2B3233",
"7  c #303738",
"8  c #31393A",
"9  c #3F3F3F",
"0  c #431414",
"q  c #4B1616",
"w  c #611C1C",
"e  c #6C1F1F",
"r  c #732121",
"t  c #7B2424",
"y  c #3A4344",
"u  c #3E4849",
"i  c #454545",
"p  c #434D4E",
"a  c #4B4B4B",
"s  c #444F50",
"d  c #465152",
"f  c #4A5657",
"g  c #4C5859",
"h  c #515151",
"j  c #505D5E",
"k  c gray37",
"l  c #525F60",
"z  c #536062",
"x  c #5D6B6D",
"c  c #626262",
"v  c #6E6E6E",
"b  c #647375",
"n  c gray44",
"m  c #7B7B7B",
"M  c #862727",
"N  c #8C2929",
"B  c #912A2A",
"V  c #9E2E2E",
"C  c #A12F2F",
"Z  c #AC3232",
"A  c #B53434",
"S  c #BB3636",
"D  c #C33838",
"F  c #CB3B3B",
"G  c #D33D3D",
"H  c #DD4040",
"J  c #E34141",
"K  c #EF4545",
"L  c #F14646",
"P  c #6E8082",
"I  c #718285",
"U  c #748588",
"Y  c #788B8D",
"T  c #7C8F91",
"R  c #7D9093",
"E  c #828282",
"W  c gray54",
"Q  c #83989A",
"!  c #949494",
"~  c #9B9B9B",
"^  c #899FA1",
"/  c #8BA0A3",
"(  c #93AAAD",
")  c #99B2B5",
"_  c #9CB5B8",
"`  c #9FB9BC",
"'  c #A3A3A3",
"]  c #AFAFAF",
"[  c #B1B1B1",
"{  c #BCBCBC",
"}  c #A5BFC2",
"|  c #A6C1C4",
" . c #A9C4C7",
".. c #ABC6CA",
"X. c #B6D3D6",
"o. c #B7D4D8",
"O. c #B9D7DA",
"+. c #BDDADE",
"@. c #BFDEE1",
"#. c #C5C5C5",
"$. c #CCCCCC",
"%. c #D5D5D5",
"&. c #DCDCDC",
"*. c #C0DFE2",
"=. c #C3E2E5",
"-. c #C5E4E8",
";. c #C8E7EB",
":. c #CAEAED",
">. c #CDEEF2",
",. c #CFF0F4",
"<. c #D2F3F7",
"1. c #D4F6FA",
"2. c #D6F8FC",
"3. c #D8FBFE",
"4. c #E5E5E5",
"5. c #EBEBEB",
"6. c #F3F3F3",
/* pixels */
"2.2.2.2.2.2.2.2.2.2.2.2.2.2.2.2.2.2.2.2.2.2.2.2.2.2.2.2.2.2.2.2.3.3.3.2.2.2.2.2.2.2.2.2.2.2.2.2.2.2.3.3.2.2.2.2.2.2.2.2.2.2.2.2.",
"2.2.2.2.2.2.2.1.2.2.2.2.2.2.2.2.2.2.2.2.2.2.2.2.2.2.2.2.3.3.2.;.@.+.@.:.2.3.3.2.2.2.2.2.2.2.2.2.2.1.=.=.2.2.2.2.2.2.2.2.2.2.2.2.",
"2.2.2.2.2.2.2.2.2.2.2.2.2.2.1.2.2.2.2.2.2.2.2.2.2.1.2.2.X.R f 3 < = < 5 g R O.2.3.2.2.2.2.2.2.2.-.x 1 1 x =.2.2.2.2.2.2.2.2.2.2.",
"2.2.2.2.2.2.2.2.2.2.2.2.2.2.2.2.2.2.2.2.2.2.2.2.2.1.X.x =     . + @ + .     < b O.3.2.2.2.2.2.1.x   o O   x 2.2.2.2.2.2.2.2.2.2.",
"2.2.2.2.2.2.2.2.2.2.2.2.2.2.2.2.2.2.2.2.2.2.1.2.2.^ 1   . q N A F G F A M 0 .   1 ( 2.2.2.2.2.=.1 O ' ' O 1 =.2.2.2.2.2.2.2.2.2.",
"2.2.2.2.2.2.2.2.2.2.2.2.2.<.=.=.2.2.2.2.2.1.3.2.U o   0 A J L L K L L L L J Z 0   O Y 1.2.2.2.=.1 O ' ' O 1 =.2.2.2.2.2.2.2.2.1.",
"2.2.2.2.2.2.2.2.2.2.2.2.=.x 1 1 x =.3.2.2.2.2.Y o . t J L L K K K K K K K K L J r . o b >.3.2.2.x   O O   x 2.2.2.2.2.2.2.2.2.2.",
"2.2.2.2.2.2.2.2.2.2.2.2.x   O O   x 2.2.2.3.) O . M K K K K K K K K L K K K J J K N .   g -.3.3.-.x 1 1 x -.2.2.2.2.2.2.2.2.2.2.",
"2.2.2.2.2.2.2.2.2.2.2.=.1 O ' ' O 1 *.2.2.-.7   e K K L K K K L K K K K K J q q G L V $   u O.3.2.2.=.=.2.2.2.2.1.2.2.2.2.2.2.2.",
"2.2.2.2.2.1.2.2.2.2.2.*.1 O ' ' O 1 =.3.3.R   : G L K K K K K K L K K K L J ,   w K L A ;   6 ..3.2.2.3.2.2.2.2.2.2.2.2.2.2.2.2.",
"2.2.2.2.2.2.2.2.2.2.2.1.x   O O   x 2.2.-.3   B L L K K K L K K K K K L K L A $ . N K L D ,   2 _ 2.2.2.2.2.2.2.2.2.2.2.2.2.2.2.",
"1.2.2.2.2.2.2.2.2.2.2.2.=.x 1 2 x -.2.3.T   > H L K K K K K K K K K K K K K L B   + S L L G q   = / >.*.@.1.3.2.2.2.2.2.2.2.2.1.",
"2.2.2.2.2.2.2.2.2.2.2.2.2.1.=.=.2.2.2.-.3 . N L K K K K K K K K K L K K K K L J w   ; N H L J w   O y < < d } 2.2.2.2.2.2.2.2.2.",
"2.2.2.2.2.2.2.2.2.2.2.2.2.2.2.2.2.2.3.T   , G L K K K L K K L K K K K K K K L L G ,   . > B G K w     & *   = } 2.2.2.1.2.2.2.2.",
"2.2.2.2.2.2.2.1.2.2.2.2.2.2.2.2.2.2.-.3   B L L L K L L L L L L L L L L L L L L L S $       > B q   h #.#.h   d <.2.2.2.2.2.2.2.",
"2.2.2.2.2.2.2.2.2.2.2.2.2.2.2.2.3.3.Y   ; S G G G G G G G G G G G G G G G G F G G G r           . * #.6.6.#.* - @.2.2.2.2.2.2.2.",
"2.2.2.2.2.2.2.2.2.2.2.2.2.2.2.2.=.x *   . @ @ @ ; @ @ @ ; @ @ @ @ @ @ ; @ @ ; ; @ @ +         &   * #.6.6.#.* 1 @.2.2.2.2.2.2.2.",
"2.2.2.2.2.2.2.2.2.2.2.2.2.2.2.2.x   O < - - - - - - - - - - - - - - - - - - * - - - - 2 - &   d u   h #.#.h   d <.2.2.2.2.2.2.2.",
"2.2.2.2.2.1.2.2.2.2.2.2.2.2.1.=.1 O ' %.%.%.%.%.%.%.%.%.%.%.%.%.%.%.%.%.%.%.%.%.%.%.%.%.%.' O 2 ( 1   * &   - | 3.2.2.2.2.2.2.2.",
"2.1.2.2.2.2.2.2.2.2.2.2.2.2.2.+.= - %.6.6.6.6.6.6.6.6.6.6.6.6.6.6.6.6.6.6.6.6.6.6.6.6.6.6.%.- - O...d 1 1 d | 2.2.2.2.2.2.2.2.2.",
"2.2.2.2.2.2.2.2.2.2.2.2.2.2.3.O.- - &.6.6.6.6.6.6.6.6.6.6.6.6.6.6.6.6.6.6.6.6.6.6.6.6.6.6.%.- = +.3.1.@.=.<.3.2.2.2.2.2.2.2.2.2.",
"2.2.2.1.2.2.2.2.2.2.2.2.2.2.2.=.1 O ' %.%.%.%.%.%.%.%.%.%.%.%.%.%.%.%.%.%.%.%.%.%.%.%.%.%.' O 2 =.2.2.2.2.2.2.2.2.2.2.2.2.2.2.2.",
"2.2.2.2.2.2.2.2.2.2.2.2.2.2.2.2.x   O - - - - < - - - - - - - - - - - - - - - - - - - < - O   x 2.2.2.2.2.2.2.2.2.2.2.2.2.2.2.2.",
"2.2.2.2.2.2.2.2.2.2.2.2.2.2.2.2.=.x X . # - - - - - - - - - - - - - - - - - - - - - < #   X x -.2.2.2.2.=.=.2.2.2.2.2.2.1.2.2.2.",
"2.2.2.2.2.2.2.2.2.1.3.2.2.2.2.2.3.} O * ' %.%.%.%.%.%.%.%.%.%.%.%.%.%.%.%.%.%.%.%.%.%.' O O } 3.2.2.-.x 1 1 x =.2.2.2.2.2.2.2.2.",
"2.2.2.2.2.2.2.2.2.2.=.=.1.2.2.2.2.l   c 6.6.6.6.6.5.5.6.6.6.6.6.6.6.6.6.6.4.4.6.6.6.6.6.c   l 2.2.2.x   O O   x 1.2.2.2.2.2.2.2.",
"2.2.2.2.2.2.2.2.=.x 1 1 x -.2.3.o.= % { 6.6.6.6.4.a h 4.6.6.6.6.6.6.6.6.4.h h 4.6.6.6.6.{ * - X.3.=.1 O ' ' O 1 =.2.2.2.2.2.2.2.",
"2.1.2.2.2.2.1.2.x   O O   x 2.3.Q   i 5.6.5.6.6.%.- * %.6.6.6.&.&.6.6.6.%.* - %.6.6.6.6.5.i   Q 3.=.1 O ' ' O 1 =.2.2.2.2.2.2.2.",
"2.2.2.2.2.2.2.=.1 O ' ' O 2 =.2.l   W 6.6.6.6.6.4.h a 4.6.&.v 2 2 v &.6.4.h h 4.6.5.6.6.6.E   j 2.2.x   O O   x 1.2.2.2.1.2.2.2.",
"2.2.2.2.1.2.2.*.1 O ' ' O 1 =.,.8   [ 6.6.6.6.6.6.4.4.6.6.n . . . . n 6.6.4.4.6.6.6.6.6.6.[   8 >.3.-.x 1 1 x =.2.2.2.2.2.2.2.2.",
"2.2.2.2.2.2.2.2.x   O O   x 2.=.1 * #.6.6.6.5.6.6.6.6.6.%.2 . C C . 2 &.6.6.6.6.6.6.6.6.6.$.% 1 =.2.2.2.=.=.1.2.2.2.2.2.2.2.2.2.",
"2.2.2.2.2.2.2.3.-.x 1 1 x =.3.+.- - %.6.6.6.6.6.6.6.6.6.&.2 . C C . 2 &.6.6.5.6.6.6.6.6.6.%.- - +.2.2.2.2.2.2.2.2.2.2.2.2.2.2.2.",
"2.2.2.2.2.2.2.2.2.1.=.=.1.3.2.+.- - %.6.6.6.6.6.6.6.6.6.5.v   . . . v 6.6.6.5.6.6.5.6.6.6.%.- = +.3.2.2.2.2.2.2.2.2.2.2.2.2.2.2.",
"2.2.2.2.2.1.2.2.2.2.2.2.2.2.2.=.1 * #.6.6.5.6.6.6.6.6.5.4.4.v 2 2 v 4.4.4.6.6.6.6.6.6.6.6.#.& 1 =.2.2.2.2.2.2.2.2.2.2.2.1.2.2.2.",
"2.2.2.2.2.2.2.2.2.2.2.2.2.2.3.,.8 o ] 6.6.6.6.6.5.6.4.h i $.6.4.&.6.%.i h 4.6.6.6.6.6.6.6.] . 8 >.2.2.2.2.2.2.2.2.2.2.2.2.2.2.2.",
"2.2.2.2.2.2.2.2.2.2.2.2.2.2.2.2.j   E 6.6.6.6.6.6.6.4.i   4 ~ $.$.~ 4   i 4.6.6.6.6.6.6.6.W   l 2.2.2.2.2.2.2.2.2.2.2.2.2.2.2.2.",
"2.2.2.2.2.2.2.2.2.2.2.2.2.2.2.3.Q   i 5.6.6.6.6.6.6.6.$.i     * *     i $.6.6.6.6.6.6.6.5.i   Q 3.2.2.2.2.2.2.2.2.2.2.2.2.2.2.2.",
"2.1.2.2.2.2.2.2.2.2.2.2.2.2.2.2.o.= * { 6.6.6.6.6.6.6.6.4.W 9 2 2 9 W 4.6.6.&.%.%.&.6.6.{ O = X.3.2.2.2.2.2.2.2.1.2.2.2.2.2.2.1.",
"2.2.2.2.2.2.2.2.2.2.2.2.2.2.2.2.1.z   c 6.6.6.6.6.6.6.6.6.6.5.&.%.5.6.6.&.n 2 1 - 2 n %.c   z 2.2.2.2.2.2.2.2.2.2.2.2.2.2.2.2.2.",
"2.2.2.2.2.2.2.2.2.2.2.2.2.2.2.2.3.} O * ' %.%.%.%.%.%.%.%.%.%.%.%.%.%.%.v   . @ @ .   i * & | 3.2.2.2.2.2.2.2.2.2.2.2.2.2.2.2.2.",
"2.2.2.2.2.2.2.2.2.3.2.2.2.2.2.2.-.x O   O - - - - - - - - - - - < - - - o . V G G C .     O x -.2.2.2.2.3.2.2.2.2.2.2.2.2.2.2.2.",
"2.2.2.1.2.2.2.2.:.:.3.:.:.2.2.1.x   . $ $ @ @ $ @ $ @ @ @ $ @ @ ; @ @ +   $ G L L G $ . $ .   x 2.2.2.:.:.3.:.-.2.2.2.2.2.2.2.2.",
"2.2.2.2.2.2.2.:.p y  .p p :.3.-.1 . V G G G G G G G G G G G G G G G G S + $ G L L G $ + S C . 1 =.2.:.p p | y p ;.3.2.2.2.2.2.2.",
"2.2.2.2.2.2.2.:.y   1 o = O.3.+.= @ G L L L L L K L L L L L L L L L L G $ $ G K L F $ $ G G $ = +.3.O.= o 2   y ;.2.2.2.2.2.2.2.",
"2.2.2.2.2.2.2.3. .1     < +.3.O.- @ G L L L L L L L L L L L L L L L L G $ $ G L L G $ $ H G $ = +.3.@.<     1 | 2.2.2.1.2.2.2.2.",
"2.2.2.2.2.2.3.;.p o     * ..3.=.1 . C G G G G G G G G G G G G G G G G A $ $ G L L G $ + S V . 1 =.3...&     O p ;.2.2.2.2.2.2.2.",
"2.2.2.2.2.2.2.:.p = < &   8 X.2.x   . $ $ @ @ @ @ @ @ @ @ @ @ @ @ $ $ $   $ G K L G $   + .   x 2.X.8   * < - p :.3.2.2.2.2.2.2.",
"2.2.2.2.2.2.2.2.:.+.+. .8   8 o.-.6     - - - - - - - - - - - -     @ +   $ G L L G $       6 -.o.8   8  .+.+.;.2.2.2.2.2.2.2.2.",
"2.2.2.2.2.1.2.2.2.3.2.3.o.7   8 P O o m %.%.%.%.%.%.%.%.%.%.%.{ = + S S + $ G L L G @ = k O O P 8   8 X.3.3.3.2.2.2.2.2.2.2.2.2.",
"2.2.1.2.2.2.2.2.2.2.2.2.3.X.8     o m 5.6.6.6.6.6.6.6.6.6.6.6.%.- + H G $ $ G L L G @ - $.m o     8 X.2.2.2.2.2.2.2.2.2.2.2.2.2.",
"2.2.2.2.2.2.2.2.2.2.2.2.2.3.| %   - #.6.6.6.6.6.6.6.6.6.6.6.6.%.- @ G H $ $ G L L G @ = %.#.-   % | 3.2.2.2.2.2.2.2.2.2.2.2.2.2.",
"2.2.2.2.2.2.2.2.2.2.2.2.2.2.U   X   i 4.6.6.6.5.6.6.6.6.6.6.6.%.- @ S S + $ G L L G @ 2 #.i   .   U 2.2.2.2.2.2.2.2.2.2.2.2.2.2.",
"2.2.2.2.2.1.2.2.2.2.2.2.3.O.< X m a h 4.6.6.6.6.6.6.6.6.6.6.6.%.-   $ $   $ G L L G @ - #.h i E o - O.2.2.2.2.2.2.2.2.2.2.2.2.2.",
"2.2.2.2.2.2.2.2.2.2.2.2.3.P   i 5.4.4.6.6.6.6.6.6.5.6.6.6.5.6.%.-   = =   @ S G G S @ - %.4.4.5.i   I 2.2.2.2.2.2.2.2.2.2.2.2.2.",
"2.2.2.2.2.2.2.2.2.2.2.2.;.6   ' 6.6.6.6.5.6.6.5.6.6.6.6.6.6.6.%.- * { { -   $ $ $ @   - %.6.6.6.'   6 :.2.2.2.2.2.2.2.2.2.2.2.2.",
"2.2.2.2.2.2.2.2.2.2.3.3.`   3 &.6.6.6.6.6.6.6.6.6.6.6.5.6.6.6.4.h h 5.%.1   *     * . < %.6.6.6.&.2 o ` 3.2.2.2.2.2.2.2.2.2.2.2.",
"2.2.2.2.2.2.2.2.2.2.2.3.P   c 6.6.6.6.6.5.6.6.6.6.6.6.6.5.6.6.6.4.4.6.%.- - ~ - - ' * - %.6.6.6.6.c   P 3.2.2.2.2.2.2.2.2.2.2.2.",
"2.2.2.2.2.2.2.2.2.2.2.2.s   ! 6.6.6.6.6.6.6.6.6.6.6.6.6.6.6.6.6.6.6.6.4.h h %.h h &.h h 4.6.6.6.6.!   d <.2.2.2.2.2.2.2.2.2.2.2.",
"2.2.2.2.2.2.2.2.2.2.2.:.6 o { 6.6.6.6.6.6.6.6.6.6.6.6.6.6.6.6.6.6.6.6.6.5.4.6.4.4.6.4.4.6.6.6.6.6.{ o 6 :.3.2.2.2.2.2.2.2.2.2.2.",
"2.2.2.2.2.2.2.2.2.2.3.*.- * [ %.%.%.%.%.%.%.%.%.%.%.%.%.%.%.%.%.%.%.%.%.%.%.%.%.%.%.%.%.%.%.%.%.%.[ * - =.2.2.2.2.2.1.2.2.2.2.2.",
"2.2.2.2.2.2.2.2.2.2.3.O.-   * - - - - - - - - - - - - - - - - - - - - - - - - - - - - - - - - - - =   = +.3.2.2.2.2.2.2.2.1.2.2.",
"2.2.2.2.2.2.2.2.2.2.2.:.d = - - = - - = - - - - = = - - - - - = - = - - - - - - = = - = - = = = - - = p ;.2.2.2.2.2.2.2.2.2.2.2.",
"2.2.2.2.2.2.2.2.2.2.2.2.>.O.@.O.+.+.+.+.O.+.+.+.+.+.+.+.+.+.+.+.+.+.+.+.+.+.+.+.*.+.+.*.*.+.+.+.+.+.+.:.2.2.2.2.2.1.2.2.2.2.2.2.",
"2.2.2.2.2.2.2.2.2.2.2.2.2.3.3.3.3.3.3.3.3.3.2.3.3.3.2.2.3.3.2.3.3.2.3.3.3.3.2.3.3.2.2.2.3.2.3.3.3.3.3.2.2.2.2.2.2.2.2.2.2.2.2.2."
};
