/* XPM */
static char *result[] = {
/* columns rows colors chars-per-pixel */
"64 64 147 2 ",
"   c #1A0D06",
".  c #1C0F08",
"X  c #1D1007",
"o  c #1D120B",
"O  c #1D190E",
"+  c #1D1D11",
"@  c #22150C",
"#  c #2C1909",
"$  c #301C09",
"%  c #221710",
"&  c #251B14",
"*  c #281E17",
"=  c #251D18",
"-  c #291E18",
";  c #1D2113",
":  c #1D2817",
">  c #1E2D1A",
",  c #1D331D",
"<  c #1C381F",
"1  c #3A220B",
"2  c #2B221C",
"3  c #1C3D22",
"4  c #2F2620",
"5  c #332C26",
"6  c #352D28",
"7  c #37312C",
"8  c #39332D",
"9  c #3C3731",
"0  c #3E3A35",
"q  c #44280B",
"w  c #4D2E0B",
"e  c #52310B",
"r  c #5A360B",
"t  c #623B0B",
"y  c #403B36",
"u  c #423E39",
"i  c #1C4124",
"p  c #1C4728",
"a  c #1C4A2A",
"s  c #1B522E",
"d  c #1B5630",
"f  c #1B5B33",
"g  c #204326",
"h  c #204D2B",
"j  c #20532E",
"k  c #215B32",
"l  c #1B6236",
"z  c #1A6639",
"x  c #1A6B3C",
"c  c #1A703E",
"v  c #216135",
"b  c #216739",
"n  c #216B3B",
"m  c #22733F",
"M  c #6E420B",
"N  c #78470A",
"B  c #7D4A0A",
"V  c #44413C",
"C  c #227641",
"Z  c #227C44",
"A  c #474541",
"S  c #494743",
"D  c #4B4A45",
"F  c #504F4A",
"G  c #4F504B",
"H  c #51524D",
"J  c #545552",
"K  c #585B57",
"L  c #5A5D59",
"P  c #5E615D",
"I  c #61635F",
"U  c #626662",
"Y  c #646965",
"T  c #666C6A",
"R  c #696F6B",
"E  c #6B716F",
"W  c #6D7573",
"Q  c #717774",
"!  c #717977",
"~  c #757D7A",
"^  c #844F0A",
"/  c #8B530A",
"(  c #975A0A",
")  c #9C5D0A",
"_  c #A4620A",
"`  c #AC660A",
"'  c #B36B0A",
"]  c #BD710A",
"[  c #C4750A",
"{  c #228147",
"}  c #228649",
"|  c #238B4C",
" . c #23914F",
".. c #239652",
"X. c #239853",
"o. c #7A8583",
"O. c #7D8887",
"+. c #7E8A89",
"@. c #76A7AF",
"#. c #828D8A",
"$. c #85908E",
"%. c #859291",
"&. c #889493",
"*. c #8C9996",
"=. c #8E9D9D",
"-. c #93A19E",
";. c #94A4A4",
":. c #98A7A5",
">. c #9AA9A7",
",. c #96A8A8",
"<. c #9BACAC",
"1. c #9FB0AE",
"2. c #9EB2B2",
"3. c #A0B0AF",
"4. c #A1B3B3",
"5. c #A6B8B6",
"6. c #A2B7B8",
"7. c #A6BBBB",
"8. c #A9BCBB",
"9. c #ADC0BF",
"0. c #ACC2C3",
"q. c #AFC7C8",
"w. c #B1C5C4",
"e. c #B3CBCB",
"r. c #B8CECE",
"t. c #B5CED0",
"y. c #B7D1D3",
"u. c #BAD4D5",
"i. c #BBD6D8",
"p. c #BDD9DB",
"a. c #C0DDDF",
"s. c #C1DEE1",
"d. c #C5E1E4",
"f. c #C9E3E3",
"g. c #C7E5E8",
"h. c #CCE7E8",
"j. c #CCEAEC",
"k. c #D0ECEC",
"l. c #CEEEF2",
"z. c #CFF0F3",
"x. c #D2F2F4",
"c. c #D9F7F7",
"v. c #D4F6FA",
"b. c #DAF7F8",
"n. c #D6F8FC",
"m. c #DDFDFF",
"M. c #E1FFFF",
/* pixels */
"n.n.n.n.n.n.n.n.n.n.n.n.n.n.v.n.n.n.n.n.n.n.n.n.n.n.n.n.n.n.n.n.n.n.n.n.n.n.n.n.n.n.n.n.n.n.n.n.n.n.n.n.n.n.n.n.n.n.n.n.n.n.n.n.",
"n.n.n.n.n.n.n.v.n.n.n.n.n.n.n.n.n.n.n.n.n.n.n.n.n.n.n.n.n.n.n.d.d.v.n.n.n.n.n.n.n.n.n.n.n.n.n.n.n.n.n.n.n.n.n.n.n.n.n.n.n.n.n.n.",
"n.n.n.n.n.n.n.n.n.n.n.n.n.n.n.n.n.n.n.n.n.v.n.n.n.n.n.n.n.e.I 6 6 J 7.n.n.n.n.n.n.n.n.n.n.n.n.n.v.n.n.n.n.n.n.n.n.n.n.n.n.n.n.n.",
"n.n.n.n.n.n.n.n.n.n.n.n.n.n.n.n.n.n.n.n.n.n.n.n.n.n.n.n.0.6   - 2   2 2.n.n.n.n.n.n.n.n.n.n.v.n.n.n.n.n.n.n.n.n.n.n.n.n.v.n.n.n.",
"n.n.n.n.n.n.n.n.n.n.n.n.n.n.n.n.n.n.n.n.n.n.n.n.n.n.n.i.0 . L e.r.R X 5 q.n.n.n.n.n.n.n.n.n.n.n.n.n.n.n.n.n.n.n.n.n.n.n.n.n.n.n.",
"n.n.n.n.n.n.n.n.n.n.n.n.n.n.n.n.n.n.n.n.n.n.n.n.n.n.d.D   G f.M.M.x.U X 0 u.n.n.n.n.n.n.n.n.n.n.n.n.n.n.n.n.j.s.l.n.n.n.n.n.n.n.",
"n.n.n.n.n.n.n.n.n.n.n.n.n.n.n.n.n.n.n.n.n.n.n.n.n.j.L . V a.M.M.M.M.h.H   D d.n.n.n.n.n.n.n.n.n.n.n.n.n.x.=.V 5 u =.x.n.n.n.n.n.",
"n.n.n.n.n.n.n.n.n.n.n.n.n.n.v.n.n.n.n.n.n.n.n.n.x.W X 7 e.M.m.m.M.m.M.a.V   P j.n.n.n.n.n.n.n.n.n.n.n.n.=.& O 4 o & =.n.n.n.n.n.",
"n.n.n.n.n.n.n.n.n.n.n.n.n.n.n.n.n.n.n.n.n.n.n.v.O.o 2 5.M.m.M.m.m.M.m.M.e.7 X E x.n.n.n.n.n.n.n.n.n.n.j.V @ #.a.#.o u l.n.n.n.n.",
"n.n.n.n.n.n.n.n.n.v.n.l.d.z.n.n.n.n.n.n.n.n.n.=.% * :.M.M.M.m.M.M.m.m.M.M.5.4 @ o.n.n.n.n.n.n.n.n.n.n.s.5 4 a.M.a.4 5 s.n.n.n.n.",
"n.v.n.n.n.n.n.n.n.n.e.H 5 H e.n.n.n.n.n.n.n.4.2 @ $.m.M.m.M.M.m.M.m.M.m.m.M.:.- % *.n.n.n.n.n.n.n.n.n.j.u @ +.a.#.o u l.n.n.n.n.",
"n.n.n.n.n.n.n.n.n.j.G X 2 X G z.n.n.n.n.n.q.6 o ! b.M.m.M.m.M.m.M.M.m.M.M.M.m.$.% 2 2.n.n.n.n.n.n.n.n.n.-.% o 4 @ % -.n.n.n.n.n.",
"n.n.n.n.n.n.n.n.n.s.5 2 o.2 5 a.n.n.n.n.u.y   I x.M.m.M.m.M.m.M.m.M.m.M.m.M.M.n.~ o 5 0.n.n.n.n.n.n.n.n.v.=.V 5 A =.x.n.n.n.n.n.",
"n.n.n.n.n.n.n.n.n.z.G . 2   G z.n.n.n.d.D   H h.M.M.M.m.M.m.M.m.M.m.M.m.M.m.m.M.x.U   y u.n.n.n.n.n.n.n.n.n.l.a.l.n.n.v.n.n.n.n.",
"n.n.n.n.n.n.n.n.n.n.e.H 6 G e.n.n.n.j.L   V a.M.M.m.M.m.m.M.m.M.m.M.m.M.m.M.m.M.M.h.H   D d.n.n.n.n.n.n.n.n.n.n.v.n.n.n.n.n.n.n.",
"n.n.n.n.n.n.n.n.n.n.n.z.s.z.n.n.n.x.W X 7 e.M.M.m.M.m.M.M.m.M.m.M.m.M.m.M.m.M.m.M.M.a.V   L l.n.n.n.n.n.n.n.n.v.n.n.n.n.n.n.n.n.",
"n.n.n.n.n.n.n.n.n.n.n.n.n.n.n.n.n.8.% 2 7.M.m.M.m.M.m.M.m.M.m.M.m.M.m.M.M.m.M.m.M.m.M.r.7 o ,.n.n.n.n.n.n.n.n.n.n.n.n.n.n.n.n.n.",
"n.n.n.n.n.n.n.n.n.n.n.n.n.n.n.n.n.+.  E m.M.M.m.M.m.M.m.M.m.M.m.M.m.M.m.m.M.m.M.m.M.M.M.#.  E n.n.n.n.n.n.n.n.n.n.n.n.n.n.n.n.n.",
"v.n.n.n.n.n.n.n.n.n.n.n.n.n.n.n.n.O.  Q M.M.M.M.m.M.m.M.m.M.m.M.m.M.m.M.M.M.M.m.M.m.M.M.&.  E n.n.n.n.n.n.n.n.n.n.n.n.n.n.n.n.n.",
"n.n.n.n.n.n.n.v.n.n.n.n.n.n.n.n.m.7.% 5 3.a.e.a.M.m.M.m.M.m.M.m.M.m.M.m.M.m.m.M.m.M.x.8.9 @ ;.n.n.n.n.n.n.n.n.n.n.n.n.n.n.n.n.n.",
"n.n.n.n.n.n.n.n.n.n.n.n.n.n.n.n.n.d.9 X & 5 2 V k.M.m.M.M.M.M.m.m.M.m.M.M.m.M.m.M.x.I %   5 u.n.n.n.n.n.n.n.n.n.n.n.n.n.n.n.n.n.",
"n.n.n.n.n.n.n.n.n.n.n.n.n.n.n.n.n.o.@ O 2 + X 5 f.m.M.m.h.h.m.M.M.m.M.m.M.M.m.M.M.f.5 O O O W x.n.n.n.n.n.n.n.n.n.n.n.n.n.n.v.n.",
"n.n.n.n.n.n.n.n.n.n.n.n.n.n.n.n.,.* O n  .m ; 5 f.M.k.~ 8 9 ~ k.M.m.M.m.h.h.m.M.m.f.5 2 v O @ &.n.n.n.n.n.n.n.n.n.v.n.n.n.n.n.n.",
"n.n.n.n.d.d.v.n.n.n.n.n.n.n.n.q.5 X j X.X.| ; 5 f.M.~ X O O   ~ m.M.k.~ 9 9 ~ h.M.f.5 O } v O 2 7.n.n.n.n.n.n.n.n.n.n.n.n.n.n.n.",
"n.n.g.W 7 7 W g.n.n.n.n.n.n.d.A   3 ......} ; 6 f.j.0 O n n O 9 h.M.~ X O O X ! m.f.5 ; } ..a X 0 i.n.n.n.n.n.n.n.n.n.n.n.v.n.n.",
"n.v.W . & * X W n.n.n.n.n.l.U . , } ......} + 6 f.f.6 + | } + 6 f.j.8 o x n O 9 k.h.5 2 } ..| <   J j.n.n.n.n.n.n.n.n.n.n.n.n.n.",
"n.d.7 2 3.4.2 7 g.n.n.n.n.o.@ ; C ........} ; 6 f.f.6 ; } } + 6 f.f.6 ; | } ; 5 f.f.5 ; } ....{ : . ! v.n.n.n.n.n.n.n.n.n.n.n.n.",
"n.d.7 = 2.2.= 7 d.n.n.n.<.* O b ..........} ; 6 f.f.5 ; | } + 6 h.f.6 2 } } ; 5 f.f.5 ; } ......n + & =.n.n.n.n.n.n.n.n.n.n.n.n.",
"n.n.W X 2 = X W n.n.n.y.7 X j ............} + 6 f.f.6 ; } | : - 3.3.2 : | } ; 5 f.h.5 ; } X.......k . 4 0.n.n.n.n.n.n.n.n.n.n.n.",
"n.n.g.W 7 7 W g.n.n.n.Y   3 | ............} ; 6 f.f.6 + } ..h o * -   h  .| 2 5 f.f.5 ; } ..........g . K z.n.n.n.n.n.n.n.n.n.n.",
"n.n.n.v.d.d.v.n.n.n.g.8 O Z ..............} ; 6 f.f.7 ; } X.| h 2 ; s | ..} ; 5 d.f.5 ; } ........X.{ + 6 a.n.n.n.n.n.n.n.n.n.v.",
"n.n.n.n.n.n.n.n.n.n.g.7 O { X.X.....X.X.X.} + 6 f.f.6 ; } ..X...| |  .....| : & 1.1.2 : | ..X.......} 2 2 p.n.n.v.n.n.n.n.n.n.n.",
"n.n.n.n.n.n.n.n.n.n.v.L . g } | } Z C b s i O 5 f.f.5 ; } ......X.X.X.X. .X.a @ = - o 2 l m Z } | } a   G z.n.n.n.n.n.n.n.n.n.n.",
"n.n.n.n.n.n.n.n.n.n.n.0.4 o + : 2 + O o o X X 5 f.h.5 ; } ......X.X.X.X.X.X.} , o X o . o O + ; : 2 X 2 2.n.n.n.n.n.n.n.n.n.n.n.",
"n.n.n.n.n.v.n.n.n.n.n.n.7.9 o o O ; : , i < O 2 4.<.- & C | | ..|  .} Z n a , O . O , i , : ; O o X 4 1.n.n.n.n.n.n.n.n.n.n.n.n.",
"n.n.n.n.n.n.n.n.n.n.n.n.s.0 X i z z x c c x < o - - . o + : > , , > : + @ @ X + , d c c x x z z a o 5 t.n.n.n.n.n.n.n.n.n.n.n.n.",
"n.n.v.n.n.n.n.n.n.n.n.n.W . : z c c c c c c x < 2 ; , > ; O O o o o O ; : < a , + ; 3 x c c c c c , . K l.n.n.n.n.n.n.n.n.n.n.n.",
"n.n.n.n.n.n.n.n.n.n.n.2.& O d c c c c c c c c c z z c x z l f d f f f z x c i X = = X 3 x c c c c l + o *.n.n.n.n.n.n.n.n.n.n.n.",
"n.n.n.n.n.n.n.n.n.n.d.V . 3 c c x c c c c c c c z x c c c c c c c c c c c z ; 2 @.@.= ; z c c c c c a . 7 y.n.n.n.n.n.n.n.n.n.n.",
"n.n.n.n.n.n.n.n.n.n.! o > z c c c c c c c c x < ; ; < z c c c c c c c c c z ; & @.@.= + x c c c c c x ,   P z.n.n.n.n.v.n.n.n.n.",
"n.n.n.n.n.n.n.n.n.6.= O d c c c c c x c c c 3 X = = o 3 x c c c c c c c c x < X = = X 3 c c c c c c c f % % =.b.n.n.n.n.n.n.n.n.",
"n.n.n.n.n.n.n.n.s.A . 3 c c c c c c c c c z ; 2 @.@.= ; z c c c c c c c c c x i ; ; 3 x c c c c c c c c p . 8 u.n.n.n.n.n.n.n.n.",
"n.n.n.v.n.n.n.n.+.. : z x c c c c c c c c z ; + @.@.= ; z c c c c c c c c c c c z z c c c c c c c c c c x > . Q n.n.n.n.n.n.n.n.",
"n.n.n.n.n.n.n.l.S . d c c c c c c c c c c c 3 X = = X 3 c c c c c c c c c c c c c c c c c c c c c c c c c d @ S j.n.n.n.n.n.n.n.",
"n.n.n.n.n.n.n.l.u o f c c c c c c x c c c c x 3 ; ; i z c c c c c x c c c c c c c c c x c c c c c c c c c f o h j.n.n.n.n.n.n.n.",
"n.n.n.n.n.n.n.x.K   3 c c c x x z f a 3 > d c c z z c c c c c c c c c c c c c c c c f , , a f z x x x x l ,   Y v.n.n.n.n.n.n.n.",
"n.n.n.n.n.n.n.n.6.= o > > , > ; + o . . . O i z c c c c c c c c c c c c c c c c x p O . .   o O + ; + : + . 7 e.n.n.n.n.n.n.n.n.",
"n.n.n.n.n.n.n.n.n.=.9 o . . O * 4 0 L +.W =   : a z c c c c c c c c c c c c z a : X + U %.U V 6 4 - = - 4 G 0.n.n.n.n.n.n.n.n.n.",
"n.n.n.n.n.n.n.n.n.n.d.2.;.,.7.q.a.j.v.n.n.4.D @ X + 3 a f z x x x x z f a 3 = % o V ,.x.n.n.l.d.t.t.q.e.p.x.n.n.n.n.n.n.n.n.n.n.",
"n.n.n.n.n.n.n.n.n.n.m.n.n.v.z.j.l.x.v.n.n.m.l.,.S o . . o & ; : : ; + O . . @ g =.j.n.n.n.n.n.n.n.n.n.n.n.n.n.n.n.n.n.n.n.n.n.n.",
"n.n.n.n.n.n.n.n.x.e.;.Q L D u u u D K E &.2.y.z.=.O 1 e $ $ # @ % @ # 1 w 1 . *.n.n.n.n.n.n.n.n.n.n.n.n.n.n.n.x.z.x.n.n.n.n.n.n.",
"n.n.n.n.n.n.u.#.D 2     X % * = * @ X     o 2 0 9 . r ' ' ` ) ( ( ) _ ' [ M   ~ n.n.n.n.n.n.n.n.n.n.n.d.<.~ K S V G Y %.e.z.n.n.",
"n.n.n.n.y.W 5   @ 8 I $.2.w.r.r.e.9.1.&.Q H 7 & . . @ q t / ` [ [ [ [ [ [ ^   P n.n.n.n.n.n.n.n.n.e.W 7 o     @ % o     2 T l.n.",
"n.n.d.o.4   - I 3.f.m.M.M.M.M.M.M.M.M.M.M.b.f.9.*.U 0 &     $ e B _ ] [ [ ( X V z.n.n.n.n.n.n.d.~ 4   - S ~ :.8.w.5.*.I O 5 s.n.",
"n.l.J . & U w.n.M.M.M.m.M.m.M.m.M.m.M.m.M.m.M.M.m.m.k.9.#.H 2   . @ w N _ _ # 5 d.n.n.n.n.j.:.V . * Y 8.x.M.M.M.M.M.M.f.5 5 s.n.",
"n.a.5 * <.n.M.M.m.M.m.M.m.M.m.M.m.M.m.M.m.M.m.M.m.m.M.M.M.v.a.-.P 6 o   # q # & ,.i.e.4.~ V o X D 7.m.M.M.M.M.m.m.M.M.f.5 5 s.n.",
"n.a.5 6 f.M.M.m.M.M.m.M.m.M.m.M.m.M.m.M.m.M.M.m.m.M.m.M.M.m.M.M.m.a.>.U 7 @ X . % 2 & X   O y &.h.M.m.M.M.m.M.m.M.m.M.f.5 5 a.n.",
"m.a.5 5 f.M.m.M.M.m.M.m.M.m.M.m.M.m.M.m.M.m.M.m.M.m.M.m.m.M.m.m.M.M.M.M.a.>.E F V 8 0 F E 1.f.M.M.m.M.m.m.M.m.m.m.M.M.f.5 5 s.n.",
"n.a.5 5 f.M.M.M.M.M.M.m.M.M.M.M.m.M.M.M.M.M.M.m.M.M.M.M.M.M.M.M.M.M.M.M.M.M.M.b.k.j.k.c.M.M.M.M.M.M.M.M.M.M.M.M.M.M.M.f.5 5 a.n.",
"n.a.5 4 e.f.d.f.f.f.f.f.f.f.f.f.f.f.f.f.f.f.f.f.f.f.f.f.f.f.f.f.s.f.f.s.f.f.f.s.f.f.f.f.f.f.f.f.f.f.f.f.f.f.f.d.f.f.f.w.5 5 s.m.",
"n.a.5 o 5 5 5 5 5 5 5 5 5 5 5 5 6 5 5 5 5 5 5 5 5 5 5 5 5 5 7 5 6 5 5 5 6 6 6 5 6 6 5 5 5 5 5 5 5 5 5 5 6 6 5 6 5 5 5 5 o 5 a.n.",
"n.z.K 5 5 5 5 5 5 5 5 5 5 5 5 5 6 5 5 6 5 5 5 5 5 5 5 5 5 6 5 5 5 5 5 5 6 5 5 5 5 6 5 5 5 5 5 7 5 5 5 5 5 6 5 5 5 5 5 5 5 K j.n.",
"n.n.j.a.d.s.s.d.d.p.d.a.a.d.a.a.d.s.p.f.s.a.d.a.a.d.a.a.f.p.s.s.a.a.s.s.s.a.a.a.d.a.s.f.s.p.f.p.a.a.a.a.f.p.a.d.a.a.d.a.p.l.n.n.",
"n.n.n.n.n.n.n.n.n.n.n.n.n.n.n.n.n.n.n.n.n.n.n.n.n.n.n.n.n.n.n.n.m.n.n.n.n.b.m.b.n.n.n.n.n.n.n.n.n.m.n.n.n.n.n.n.n.n.n.n.n.n.n.n."
};
